<svg width="13" height="24" viewBox="0 0 13 24" fill="none" xmlns="http://www.w3.org/2000/svg">
<g clip-path="url(#clip0_1929_204)">
<path d="M0.293234 23.7068C-0.0977432 23.3158 -0.0977432 22.6838 0.293234 22.2928L10.586 12L0.293233 1.70719C-0.0977441 1.31621 -0.0977441 0.684208 0.293233 0.293232C0.684209 -0.0977441 1.31621 -0.0977441 1.70719 0.293232L12.707 11.293C12.902 11.488 13 11.744 13 12C13 12.256 12.902 12.512 12.707 12.707L1.70719 23.7068C1.31621 24.0977 0.68421 24.0977 0.293234 23.7068Z" fill="white"/>
<path d="M0.293234 23.7068C-0.0977432 23.3158 -0.0977432 22.6838 0.293234 22.2928L10.586 12L0.293233 1.70719C-0.0977441 1.31621 -0.0977441 0.684208 0.293233 0.293232C0.684209 -0.0977441 1.31621 -0.0977441 1.70719 0.293232L12.707 11.293C12.902 11.488 13 11.744 13 12C13 12.256 12.902 12.512 12.707 12.707L1.70719 23.7068C1.31621 24.0977 0.68421 24.0977 0.293234 23.7068Z" stroke="white"/>
</g>
<defs>
<clipPath id="clip0_1929_204">
<rect width="13" height="24" fill="white"/>
</clipPath>
</defs>
</svg>
