<svg width="13" height="24" viewBox="0 0 13 24" fill="none" xmlns="http://www.w3.org/2000/svg">
<g clip-path="url(#clip0_1929_205)">
<path d="M12.7068 0.29324C13.0977 0.684216 13.0977 1.31622 12.7068 1.7072L2.41397 12L12.7068 22.2928C13.0977 22.6838 13.0977 23.3158 12.7068 23.7068C12.3158 24.0977 11.6838 24.0977 11.2928 23.7068L0.293008 12.707C0.0980124 12.512 -5.86364e-07 12.256 -6.19938e-07 12C-6.53512e-07 11.744 0.0980122 11.488 0.293008 11.293L11.2928 0.293192C11.6838 -0.0977381 12.3158 -0.0977363 12.7068 0.29324Z" fill="white"/>
<path d="M12.7068 0.29324C13.0977 0.684216 13.0977 1.31622 12.7068 1.7072L2.41397 12L12.7068 22.2928C13.0977 22.6838 13.0977 23.3158 12.7068 23.7068C12.3158 24.0977 11.6838 24.0977 11.2928 23.7068L0.293008 12.707C0.0980124 12.512 -5.86364e-07 12.256 -6.19938e-07 12C-6.53512e-07 11.744 0.0980122 11.488 0.293008 11.293L11.2928 0.293192C11.6838 -0.0977381 12.3158 -0.0977363 12.7068 0.29324Z" stroke="white"/>
</g>
<defs>
<clipPath id="clip0_1929_205">
<rect width="13" height="24" fill="white" transform="translate(13 24) rotate(180)"/>
</clipPath>
</defs>
</svg>
