<svg width="26" height="26" viewBox="0 0 26 26" fill="none" xmlns="http://www.w3.org/2000/svg">
<path d="M16.8593 9.59536L16.8591 9.59507L16.8593 9.59536ZM16.8593 9.59536L16.8595 9.59569M16.8593 9.59536L16.8595 9.59569M16.8595 9.59569L16.8596 9.59598L16.8595 9.59569ZM20.2463 8.32582L20.2463 8.32572C20.2878 8.12727 20.2753 7.9213 20.21 7.72935C20.1447 7.5374 20.029 7.36652 19.875 7.23457C19.7211 7.10263 19.5345 7.01446 19.3348 6.9793C19.1351 6.94413 18.9297 6.96325 18.7399 7.03466L18.7398 7.03472L5.00749 12.2078C4.81879 12.2788 4.65671 12.4066 4.54348 12.5734C4.43025 12.7403 4.37142 12.9381 4.37507 13.1397C4.37872 13.3413 4.44466 13.5369 4.56384 13.6995C4.68303 13.8622 4.84963 13.9839 5.04077 14.0482L5.04081 14.0482L8.55056 15.2269L8.77611 15.3027L8.97715 15.1754L13.9719 12.0141L10.3558 15.3181L10.2153 15.4465L10.1957 15.6358L9.84217 19.0572L9.81917 19.2797L9.96974 19.4451L10.0135 19.4932L10.0135 19.4932C10.0829 19.5694 10.1667 19.631 10.2601 19.6744C10.3536 19.7179 10.4547 19.7422 10.5577 19.7461C10.6606 19.7501 10.7633 19.7334 10.8598 19.6972C10.9562 19.661 11.0445 19.6059 11.1194 19.5352L12.8501 17.9025L15.8724 20.1354L15.8724 20.1354C16.0494 20.2661 16.2563 20.3503 16.4743 20.3801C16.6923 20.41 16.9143 20.3846 17.1198 20.3062C17.3254 20.2279 17.508 20.0991 17.6509 19.9318C17.7937 19.7645 17.8922 19.564 17.9374 19.3486L17.9374 19.3486L20.2463 8.32582ZM0.5 13C0.5 6.09644 6.09644 0.5 13 0.5C19.9036 0.5 25.5 6.09644 25.5 13C25.5 19.9036 19.9036 25.5 13 25.5C6.09644 25.5 0.5 19.9036 0.5 13Z" fill="#CDA274" stroke="#CDA274"/>
</svg>
