<svg width="49" height="38" viewBox="0 0 49 38" fill="none" xmlns="http://www.w3.org/2000/svg">
<g clip-path="url(#clip0_1502_25139)">
<path d="M11.041 37.9135C11.0518 37.9206 11.0661 37.9171 11.0769 37.9242C11.1641 37.9681 11.255 38.0002 11.353 38.0002C11.4055 38.0002 11.4581 37.9931 11.5107 37.9788L24.4993 34.4567L37.4879 37.9788C37.5405 37.9931 37.5931 38.0002 37.6456 38.0002C37.7436 38.0002 37.8345 37.9681 37.9205 37.923C37.9325 37.9171 37.9456 37.9194 37.9564 37.9123L48.7125 31.3811C48.9407 31.2421 49.0483 30.9678 48.9754 30.7125L43.0189 9.93125C42.9699 9.75668 42.842 9.61418 42.6723 9.54412C42.5026 9.47643 42.3126 9.48712 42.1512 9.575L36.2211 12.881C35.9342 13.0413 35.8314 13.4035 35.9928 13.6897C36.1541 13.9771 36.5174 14.078 36.8079 13.9165L42.0771 10.9774L47.7026 30.6021L38.1237 36.4196L35.8482 18.3328C35.8075 18.0062 35.498 17.7794 35.1801 17.8174C34.8538 17.8578 34.6208 18.1547 34.6614 18.4801L36.9405 36.6001L25.0969 33.3879V30.1461C25.0969 29.8183 24.8292 29.5523 24.4993 29.5523C24.1694 29.5523 23.9017 29.8183 23.9017 30.1461V33.3879L12.0569 36.6001L14.336 18.4801C14.3766 18.1547 14.1448 17.8578 13.8173 17.8174C13.4922 17.7794 13.1911 18.0062 13.1492 18.3328L10.8749 36.4196L1.29601 30.6032L6.92145 10.9798L12.1907 13.9189C12.48 14.078 12.8433 13.9771 13.0058 13.6921C13.1672 13.4059 13.0644 13.0449 12.7775 12.8834L6.84615 9.57618C6.6872 9.48712 6.49718 9.47525 6.32627 9.54531C6.15657 9.61537 6.02869 9.75668 5.97969 9.93243L0.0232023 30.7137C-0.0508953 30.9702 0.0566657 31.2433 0.286129 31.3822L11.041 37.9135Z" fill="#CDA274"/>
<path d="M24.0932 27.7495C24.208 27.854 24.3526 27.9062 24.4984 27.9062C24.6418 27.9062 24.7852 27.8552 24.8999 27.7531C25.2979 27.3932 34.6569 18.8599 34.6569 10.0938C34.6569 4.43294 30.1955 0 24.4984 0C18.8012 0 14.3398 4.43294 14.3398 10.0938C14.3398 18.7079 23.6953 27.3838 24.0932 27.7495ZM24.4984 1.1875C29.6075 1.1875 33.4618 5.016 33.4618 10.0938C33.4618 17.3339 26.2994 24.7439 24.502 26.4896C22.7081 24.7237 15.535 17.2164 15.535 10.0938C15.535 5.016 19.3892 1.1875 24.4984 1.1875Z" fill="#CDA274"/>
<path d="M29.8772 10.0938C29.8772 7.14756 27.4642 4.75 24.4991 4.75C21.534 4.75 19.1211 7.14756 19.1211 10.0938C19.1211 13.0399 21.534 15.4375 24.4991 15.4375C27.4642 15.4375 29.8772 13.0399 29.8772 10.0938ZM24.4991 14.25C22.1926 14.25 20.3162 12.3856 20.3162 10.0938C20.3162 7.80188 22.1926 5.9375 24.4991 5.9375C26.8057 5.9375 28.6821 7.80188 28.6821 10.0938C28.6821 12.3856 26.8057 14.25 24.4991 14.25Z" fill="#CDA274"/>
</g>
<defs>
<clipPath id="clip0_1502_25139">
<rect width="49" height="38" fill="white"/>
</clipPath>
</defs>
</svg>
