<svg width="26" height="26" viewBox="0 0 26 26" fill="none" xmlns="http://www.w3.org/2000/svg">
<mask id="path-1-inside-1_1502_25200" fill="white">
<path fill-rule="evenodd" clip-rule="evenodd" d="M22.2118 3.77839C19.7676 1.34312 16.5173 0.00141205 13.0543 0C5.91884 0 0.111352 5.77927 0.108567 12.8828C0.107568 15.1536 0.703688 17.37 1.8366 19.3238L0 26L6.86268 24.2084C8.75351 25.2348 10.8824 25.7758 13.0491 25.7766H13.0544C13.0539 25.7766 13.0548 25.7766 13.0544 25.7766C20.189 25.7766 25.997 19.9967 26 12.8931C26.0013 9.45049 24.6559 6.21355 22.2118 3.77839ZM13.0543 23.6007H13.0499C11.1193 23.6 9.22556 23.0837 7.57352 22.1081L7.18066 21.876L3.10824 22.9391L4.19528 18.9876L3.93941 18.5824C2.86236 16.8775 2.29352 14.9069 2.29436 12.8835C2.29667 6.97935 7.12364 2.17597 13.0587 2.17597C15.9326 2.17686 18.6342 3.29222 20.6657 5.31632C22.6972 7.34042 23.8153 10.0309 23.8142 12.8922C23.8117 18.7968 18.9849 23.6007 13.0543 23.6007Z"/>
<path fill-rule="evenodd" clip-rule="evenodd" d="M18.9564 15.5806C18.6329 15.4195 17.0426 14.6408 16.7461 14.5333C16.4496 14.4259 16.2339 14.3722 16.0183 14.6944C15.8027 15.0166 15.1828 15.7418 14.9941 15.9567C14.8054 16.1714 14.6167 16.1985 14.2933 16.0372C13.9698 15.8761 12.9276 15.5362 11.6921 14.4394C10.7304 13.5858 10.0813 12.5316 9.89254 12.2093C9.70389 11.8871 9.87247 11.7129 10.0344 11.5523C10.1799 11.408 10.3579 11.1763 10.5197 10.9883C10.6814 10.8004 10.7353 10.666 10.8431 10.4513C10.9509 10.2364 10.8971 10.0484 10.8161 9.88734C10.7353 9.72621 10.0884 8.14168 9.81887 7.497C9.55623 6.86937 9.28959 6.95441 9.09101 6.94442C8.90262 6.93506 8.68669 6.93312 8.47108 6.93312C8.25547 6.93312 7.90497 7.01371 7.60854 7.33592C7.31205 7.65824 6.47636 8.43712 6.47636 10.0215C6.47636 11.6061 7.63544 13.1368 7.79719 13.3516C7.95888 13.5666 10.0781 16.8181 13.3229 18.2125C14.0947 18.5442 14.6972 18.7423 15.1669 18.8906C15.9418 19.1357 16.647 19.101 17.2043 19.0181C17.8258 18.9257 19.1181 18.2394 19.3876 17.4875C19.6572 16.7355 19.6572 16.0909 19.5763 15.9567C19.4955 15.8224 19.2798 15.7418 18.9564 15.5806Z"/>
</mask>
<path fill-rule="evenodd" clip-rule="evenodd" d="M22.2118 3.77839C19.7676 1.34312 16.5173 0.00141205 13.0543 0C5.91884 0 0.111352 5.77927 0.108567 12.8828C0.107568 15.1536 0.703688 17.37 1.8366 19.3238L0 26L6.86268 24.2084C8.75351 25.2348 10.8824 25.7758 13.0491 25.7766H13.0544C13.0539 25.7766 13.0548 25.7766 13.0544 25.7766C20.189 25.7766 25.997 19.9967 26 12.8931C26.0013 9.45049 24.6559 6.21355 22.2118 3.77839ZM13.0543 23.6007H13.0499C11.1193 23.6 9.22556 23.0837 7.57352 22.1081L7.18066 21.876L3.10824 22.9391L4.19528 18.9876L3.93941 18.5824C2.86236 16.8775 2.29352 14.9069 2.29436 12.8835C2.29667 6.97935 7.12364 2.17597 13.0587 2.17597C15.9326 2.17686 18.6342 3.29222 20.6657 5.31632C22.6972 7.34042 23.8153 10.0309 23.8142 12.8922C23.8117 18.7968 18.9849 23.6007 13.0543 23.6007Z" fill="#CDA274"/>
<path fill-rule="evenodd" clip-rule="evenodd" d="M18.9564 15.5806C18.6329 15.4195 17.0426 14.6408 16.7461 14.5333C16.4496 14.4259 16.2339 14.3722 16.0183 14.6944C15.8027 15.0166 15.1828 15.7418 14.9941 15.9567C14.8054 16.1714 14.6167 16.1985 14.2933 16.0372C13.9698 15.8761 12.9276 15.5362 11.6921 14.4394C10.7304 13.5858 10.0813 12.5316 9.89254 12.2093C9.70389 11.8871 9.87247 11.7129 10.0344 11.5523C10.1799 11.408 10.3579 11.1763 10.5197 10.9883C10.6814 10.8004 10.7353 10.666 10.8431 10.4513C10.9509 10.2364 10.8971 10.0484 10.8161 9.88734C10.7353 9.72621 10.0884 8.14168 9.81887 7.497C9.55623 6.86937 9.28959 6.95441 9.09101 6.94442C8.90262 6.93506 8.68669 6.93312 8.47108 6.93312C8.25547 6.93312 7.90497 7.01371 7.60854 7.33592C7.31205 7.65824 6.47636 8.43712 6.47636 10.0215C6.47636 11.6061 7.63544 13.1368 7.79719 13.3516C7.95888 13.5666 10.0781 16.8181 13.3229 18.2125C14.0947 18.5442 14.6972 18.7423 15.1669 18.8906C15.9418 19.1357 16.647 19.101 17.2043 19.0181C17.8258 18.9257 19.1181 18.2394 19.3876 17.4875C19.6572 16.7355 19.6572 16.0909 19.5763 15.9567C19.4955 15.8224 19.2798 15.7418 18.9564 15.5806Z" fill="#CDA274"/>
<path d="M22.2118 3.77839L21.506 4.48679L21.506 4.48679L22.2118 3.77839ZM13.0543 0L13.0547 -1H13.0543V0ZM0.108567 12.8828L1.10857 12.8832L1.10857 12.8832L0.108567 12.8828ZM1.8366 19.3238L2.80078 19.589L2.91198 19.1848L2.70169 18.8221L1.8366 19.3238ZM0 26L-0.964182 25.7348L-1.42371 27.4052L0.252595 26.9676L0 26ZM6.86268 24.2084L7.33976 23.3296L6.99245 23.141L6.61009 23.2408L6.86268 24.2084ZM13.0491 25.7766L13.0488 26.7766H13.0491V25.7766ZM26 12.8931L27 12.8935L27 12.8934L26 12.8931ZM13.0499 23.6007L13.0496 24.6007H13.0499V23.6007ZM7.57352 22.1081L7.06495 22.9691L7.06501 22.9691L7.57352 22.1081ZM7.18066 21.876L7.68923 21.015L7.33083 20.8033L6.92807 20.9085L7.18066 21.876ZM3.10824 22.9391L2.14406 22.6739L1.68454 24.3443L3.36083 23.9067L3.10824 22.9391ZM4.19528 18.9876L5.15946 19.2528L5.27658 18.8271L5.04082 18.4537L4.19528 18.9876ZM3.93941 18.5824L4.78496 18.0485L4.78485 18.0483L3.93941 18.5824ZM2.29436 12.8835L3.29436 12.8839L3.29436 12.8839L2.29436 12.8835ZM13.0587 2.17597L13.059 1.17597H13.0587V2.17597ZM20.6657 5.31632L21.3715 4.60793L21.3715 4.60792L20.6657 5.31632ZM23.8142 12.8922L24.8142 12.8926L24.8142 12.8926L23.8142 12.8922ZM18.9564 15.5806L19.4024 14.6856L19.4023 14.6856L18.9564 15.5806ZM16.7461 14.5333L17.087 13.5932L17.0867 13.5931L16.7461 14.5333ZM16.0183 14.6944L16.8494 15.2506L16.8495 15.2505L16.0183 14.6944ZM14.9941 15.9567L15.7453 16.6167L15.7455 16.6165L14.9941 15.9567ZM14.2933 16.0372L14.7396 15.1423L14.7392 15.1421L14.2933 16.0372ZM11.6921 14.4394L11.0282 15.1873L11.0282 15.1873L11.6921 14.4394ZM9.89254 12.2093L9.02958 12.7145L9.02959 12.7146L9.89254 12.2093ZM10.0344 11.5523L10.7385 12.2625L10.7386 12.2624L10.0344 11.5523ZM10.5197 10.9883L9.76167 10.3361L9.76159 10.3362L10.5197 10.9883ZM10.8431 10.4513L11.7367 10.9002L11.7369 10.8998L10.8431 10.4513ZM10.8161 9.88734L9.92241 10.3359L9.92258 10.3363L10.8161 9.88734ZM9.81887 7.497L10.7415 7.11128L10.7414 7.11097L9.81887 7.497ZM9.09101 6.94442L9.14124 5.94568L9.14064 5.94565L9.09101 6.94442ZM7.60854 7.33592L6.8726 6.65887L6.87255 6.65892L7.60854 7.33592ZM7.79719 13.3516L8.59632 12.7505L8.59602 12.7501L7.79719 13.3516ZM13.3229 18.2125L13.7178 17.2938L13.7177 17.2937L13.3229 18.2125ZM15.1669 18.8906L15.4685 17.9371L15.468 17.937L15.1669 18.8906ZM17.2043 19.0181L17.0572 18.029L17.0572 18.029L17.2043 19.0181ZM19.3876 17.4875L20.329 17.825L20.329 17.825L19.3876 17.4875ZM19.5763 15.9567L18.7196 16.4724L18.7199 16.4731L19.5763 15.9567ZM22.9176 3.06999C20.2855 0.44744 16.7813 -0.99848 13.0547 -1L13.0538 1C16.2534 1.0013 19.2498 2.23881 21.506 4.48679L22.9176 3.06999ZM13.0543 -1C5.37094 -1 -0.88843 5.22252 -0.891433 12.8824L1.10857 12.8832C1.11113 6.33601 6.46675 1 13.0543 1V-1ZM-0.891433 12.8823C-0.892509 15.3291 -0.250012 17.7188 0.971511 19.8254L2.70169 18.8221C1.65739 17.0212 1.10765 14.978 1.10857 12.8832L-0.891433 12.8823ZM0.872418 19.0585L-0.964182 25.7348L0.964182 26.2652L2.80078 19.589L0.872418 19.0585ZM0.252595 26.9676L7.11528 25.176L6.61009 23.2408L-0.252595 25.0324L0.252595 26.9676ZM6.38561 25.0873C8.42329 26.1934 10.7162 26.7758 13.0488 26.7766L13.0494 24.7766C11.0487 24.7759 9.08373 24.2762 7.33976 23.3296L6.38561 25.0873ZM13.0491 26.7766H13.0544V24.7766H13.0491V26.7766ZM13.0544 26.7766C13.0544 26.7766 13.0544 26.7766 13.0544 26.7766C13.0544 26.7766 13.0544 26.7766 13.0544 26.7766C13.0544 26.7766 13.0544 26.7766 13.0544 26.7766C13.0544 26.7766 13.0544 26.7766 13.0544 26.7766C13.0544 26.7766 13.0544 26.7766 13.0544 26.7766C13.0544 26.7766 13.0544 26.7766 13.0544 26.7766C13.0544 26.7766 13.0544 26.7766 13.0544 26.7766C13.0544 26.7766 13.0544 26.7766 13.0544 26.7766C13.0544 26.7766 13.0544 26.7766 13.0544 26.7766C13.0544 26.7766 13.0544 26.7766 13.0544 26.7766C13.0544 26.7766 13.0544 26.7766 13.0544 26.7766C13.0544 26.7766 13.0544 26.7766 13.0544 26.7766C13.0544 26.7766 13.0544 26.7766 13.0544 26.7766C13.0544 26.7766 13.0544 26.7766 13.0544 26.7766C13.0544 26.7766 13.0544 26.7766 13.0544 26.7766C13.0544 26.7766 13.0544 26.7766 13.0544 26.7766C13.0544 26.7766 13.0544 26.7766 13.0544 26.7766C13.0544 26.7766 13.0544 26.7766 13.0544 26.7766C13.0544 26.7766 13.0544 26.7766 13.0544 26.7766C13.0544 26.7766 13.0544 26.7766 13.0544 26.7766C13.0544 26.7766 13.0544 26.7766 13.0544 26.7766C13.0544 26.7766 13.0544 26.7766 13.0544 26.7766C13.0544 26.7766 13.0544 26.7766 13.0544 26.7766C13.0544 26.7766 13.0544 26.7766 13.0544 26.7766C13.0544 26.7766 13.0544 26.7766 13.0544 26.7766C13.0544 26.7766 13.0544 26.7766 13.0544 26.7766C13.0544 26.7766 13.0544 26.7766 13.0544 26.7766C13.0544 26.7766 13.0544 26.7766 13.0544 26.7766C13.0544 26.7766 13.0544 26.7766 13.0544 26.7766C13.0544 26.7766 13.0544 26.7766 13.0544 26.7766C13.0544 26.7766 13.0544 26.7766 13.0544 26.7766C13.0544 26.7766 13.0544 26.7766 13.0544 26.7766C13.0544 26.7766 13.0544 26.7766 13.0544 26.7766C13.0544 26.7766 13.0544 26.7766 13.0544 26.7766C13.0544 26.7766 13.0544 26.7766 13.0544 26.7766C13.0544 26.7766 13.0544 26.7766 13.0544 26.7766C13.0544 26.7766 13.0544 26.7766 13.0544 26.7766C13.0544 26.7766 13.0544 26.7766 13.0544 26.7766C13.0544 26.7766 13.0544 26.7766 13.0544 26.7766C13.0544 26.7766 13.0544 26.7766 13.0544 26.7766C13.0544 26.7766 13.0544 26.7766 13.0544 26.7766C13.0544 26.7766 13.0544 26.7766 13.0544 26.7766C13.0544 26.7766 13.0544 26.7766 13.0544 26.7766C13.0544 26.7766 13.0544 26.7766 13.0544 26.7766C13.0544 26.7766 13.0544 26.7766 13.0544 26.7766C13.0544 26.7766 13.0544 26.7766 13.0544 26.7766C13.0544 26.7766 13.0544 26.7766 13.0544 26.7766C13.0544 26.7766 13.0544 26.7766 13.0544 26.7766C13.0544 26.7766 13.0545 26.7766 13.0545 26.7766C13.0545 26.7766 13.0545 26.7766 13.0545 26.7766C13.0545 26.7766 13.0545 26.7766 13.0545 26.7766C13.0545 26.7766 13.0545 26.7766 13.0545 26.7766C13.0545 26.7766 13.0545 26.7766 13.0545 26.7766C13.0545 26.7766 13.0545 26.7766 13.0545 26.7766C13.0545 26.7766 13.0545 26.7766 13.0545 26.7766C13.0545 26.7766 13.0545 26.7766 13.0545 26.7766C13.0545 26.7766 13.0545 26.7766 13.0545 26.7766C13.0545 26.7766 13.0545 26.7766 13.0545 26.7766C13.0545 26.7766 13.0545 26.7766 13.0545 26.7766C13.0545 26.7766 13.0545 26.7766 13.0545 26.7766C13.0545 26.7766 13.0545 26.7766 13.0545 26.7766C13.0545 26.7766 13.0545 26.7766 13.0545 26.7766C13.0545 26.7766 13.0545 26.7766 13.0545 26.7766C13.0545 26.7766 13.0545 26.7766 13.0545 26.7766C13.0545 26.7766 13.0545 26.7766 13.0545 26.7766C13.0545 26.7766 13.0545 26.7766 13.0545 26.7766C13.0545 26.7766 13.0545 26.7766 13.0545 26.7766C13.0545 26.7766 13.0545 26.7766 13.0545 26.7766C13.0545 26.7766 13.0545 26.7766 13.0545 26.7766C13.0545 26.7766 13.0545 26.7766 13.0545 26.7766C13.0545 26.7766 13.0545 26.7766 13.0545 26.7766C13.0545 26.7766 13.0545 26.7766 13.0545 26.7766C13.0545 26.7766 13.0545 26.7766 13.0545 26.7766C13.0545 26.7766 13.0545 26.7766 13.0545 26.7766C13.0545 26.7766 13.0545 26.7766 13.0545 26.7766C13.0545 26.7766 13.0545 26.7766 13.0545 26.7766C13.0545 26.7766 13.0545 26.7766 13.0545 26.7766C13.0545 26.7766 13.0545 26.7766 13.0545 26.7766C13.0545 26.7766 13.0545 26.7766 13.0545 26.7766C13.0545 26.7766 13.0545 26.7766 13.0545 26.7766C13.0545 26.7766 13.0545 26.7766 13.0545 26.7766C13.0545 26.7766 13.0545 26.7766 13.0545 26.7766C13.0545 26.7766 13.0545 26.7766 13.0545 26.7766C13.0545 26.7766 13.0545 26.7766 13.0545 26.7766C13.0545 26.7766 13.0545 26.7766 13.0545 26.7766C13.0545 26.7766 13.0545 26.7766 13.0545 26.7766C13.0545 26.7766 13.0545 26.7766 13.0545 26.7766C13.0545 26.7766 13.0545 26.7766 13.0545 26.7766C13.0545 26.7766 13.0545 26.7766 13.0545 26.7766C13.0545 26.7766 13.0545 26.7766 13.0545 26.7766C13.0545 26.7766 13.0545 26.7766 13.0545 26.7766C13.0545 26.7766 13.0545 26.7766 13.0545 26.7766C13.0545 26.7766 13.0545 26.7766 13.0545 26.7766C13.0545 26.7766 13.0545 26.7766 13.0545 26.7766C13.0545 26.7766 13.0545 26.7766 13.0545 26.7766C13.0545 26.7766 13.0545 26.7766 13.0545 26.7766C13.0545 26.7766 13.0545 26.7766 13.0545 26.7766C13.0545 26.7766 13.0545 26.7766 13.0545 26.7766C13.0545 26.7766 13.0545 26.7766 13.0545 26.7766C13.0545 26.7766 13.0545 26.7766 13.0545 26.7766C13.0545 26.7766 13.0545 26.7766 13.0545 26.7766C13.0545 26.7766 13.0545 26.7766 13.0545 26.7766C13.0545 26.7766 13.0545 26.7766 13.0545 26.7766C13.0545 26.7766 13.0545 26.7766 13.0545 26.7766C13.0545 26.7766 13.0545 26.7766 13.0545 26.7766C13.0545 26.7766 13.0545 26.7766 13.0545 26.7766C13.0545 26.7766 13.0545 26.7766 13.0545 26.7766C13.0545 26.7766 13.0545 26.7766 13.0545 26.7766C13.0545 25.7766 13.0545 24.7766 13.0545 24.7766C13.0545 24.7766 13.0545 24.7766 13.0545 24.7766C13.0545 24.7766 13.0545 24.7766 13.0545 24.7766C13.0545 24.7766 13.0545 24.7766 13.0545 24.7766C13.0545 24.7766 13.0545 24.7766 13.0545 24.7766C13.0545 24.7766 13.0545 24.7766 13.0545 24.7766C13.0545 24.7766 13.0545 24.7766 13.0545 24.7766C13.0545 24.7766 13.0545 24.7766 13.0545 24.7766C13.0545 24.7766 13.0545 24.7766 13.0545 24.7766C13.0545 24.7766 13.0545 24.7766 13.0545 24.7766C13.0545 24.7766 13.0545 24.7766 13.0545 24.7766C13.0545 24.7766 13.0545 24.7766 13.0545 24.7766C13.0545 24.7766 13.0545 24.7766 13.0545 24.7766C13.0545 24.7766 13.0545 24.7766 13.0545 24.7766C13.0545 24.7766 13.0545 24.7766 13.0545 24.7766C13.0545 24.7766 13.0545 24.7766 13.0545 24.7766C13.0545 24.7766 13.0545 24.7766 13.0545 24.7766C13.0545 24.7766 13.0545 24.7766 13.0545 24.7766C13.0545 24.7766 13.0545 24.7766 13.0545 24.7766C13.0545 24.7766 13.0545 24.7766 13.0545 24.7766C13.0545 24.7766 13.0545 24.7766 13.0545 24.7766C13.0545 24.7766 13.0545 24.7766 13.0545 24.7766C13.0545 24.7766 13.0545 24.7766 13.0545 24.7766C13.0545 24.7766 13.0545 24.7766 13.0545 24.7766C13.0545 24.7766 13.0545 24.7766 13.0545 24.7766C13.0545 24.7766 13.0545 24.7766 13.0545 24.7766C13.0545 24.7766 13.0545 24.7766 13.0545 24.7766C13.0545 24.7766 13.0545 24.7766 13.0545 24.7766C13.0545 24.7766 13.0545 24.7766 13.0545 24.7766C13.0545 24.7766 13.0545 24.7766 13.0545 24.7766C13.0545 24.7766 13.0545 24.7766 13.0545 24.7766C13.0545 24.7766 13.0545 24.7766 13.0545 24.7766C13.0545 24.7766 13.0545 24.7766 13.0545 24.7766C13.0545 24.7766 13.0545 24.7766 13.0545 24.7766C13.0545 24.7766 13.0545 24.7766 13.0545 24.7766C13.0545 24.7766 13.0545 24.7766 13.0545 24.7766C13.0545 24.7766 13.0545 24.7766 13.0545 24.7766C13.0545 24.7766 13.0545 24.7766 13.0545 24.7766C13.0545 24.7766 13.0545 24.7766 13.0545 24.7766C13.0545 24.7766 13.0545 24.7766 13.0545 24.7766C13.0545 24.7766 13.0545 24.7766 13.0545 24.7766C13.0545 24.7766 13.0545 24.7766 13.0545 24.7766C13.0545 24.7766 13.0545 24.7766 13.0545 24.7766C13.0545 24.7766 13.0545 24.7766 13.0545 24.7766C13.0545 24.7766 13.0545 24.7766 13.0545 24.7766C13.0545 24.7766 13.0545 24.7766 13.0545 24.7766C13.0545 24.7766 13.0545 24.7766 13.0545 24.7766C13.0545 24.7766 13.0545 24.7766 13.0545 24.7766C13.0545 24.7766 13.0545 24.7766 13.0545 24.7766C13.0545 24.7766 13.0545 24.7766 13.0545 24.7766C13.0545 24.7766 13.0545 24.7766 13.0545 24.7766C13.0545 24.7766 13.0545 24.7766 13.0545 24.7766C13.0545 24.7766 13.0545 24.7766 13.0545 24.7766C13.0545 24.7766 13.0545 24.7766 13.0545 24.7766C13.0545 24.7766 13.0545 24.7766 13.0545 24.7766C13.0545 24.7766 13.0545 24.7766 13.0545 24.7766C13.0545 24.7766 13.0545 24.7766 13.0545 24.7766C13.0545 24.7766 13.0545 24.7766 13.0545 24.7766C13.0545 24.7766 13.0545 24.7766 13.0545 24.7766C13.0545 24.7766 13.0545 24.7766 13.0545 24.7766C13.0545 24.7766 13.0545 24.7766 13.0545 24.7766C13.0545 24.7766 13.0545 24.7766 13.0545 24.7766C13.0545 24.7766 13.0545 24.7766 13.0545 24.7766C13.0545 24.7766 13.0545 24.7766 13.0545 24.7766C13.0545 24.7766 13.0545 24.7766 13.0545 24.7766C13.0545 24.7766 13.0545 24.7766 13.0545 24.7766C13.0545 24.7766 13.0545 24.7766 13.0545 24.7766C13.0545 24.7766 13.0545 24.7766 13.0545 24.7766C13.0545 24.7766 13.0545 24.7766 13.0545 24.7766C13.0544 24.7766 13.0544 24.7766 13.0544 24.7766C13.0544 24.7766 13.0544 24.7766 13.0544 24.7766C13.0544 24.7766 13.0544 24.7766 13.0544 24.7766C13.0544 24.7766 13.0544 24.7766 13.0544 24.7766C13.0544 24.7766 13.0544 24.7766 13.0544 24.7766C13.0544 24.7766 13.0544 24.7766 13.0544 24.7766C13.0544 24.7766 13.0544 24.7766 13.0544 24.7766C13.0544 24.7766 13.0544 24.7766 13.0544 24.7766C13.0544 24.7766 13.0544 24.7766 13.0544 24.7766C13.0544 24.7766 13.0544 24.7766 13.0544 24.7766C13.0544 24.7766 13.0544 24.7766 13.0544 24.7766C13.0544 24.7766 13.0544 24.7766 13.0544 24.7766C13.0544 24.7766 13.0544 24.7766 13.0544 24.7766C13.0544 24.7766 13.0544 24.7766 13.0544 24.7766C13.0544 24.7766 13.0544 24.7766 13.0544 24.7766C13.0544 24.7766 13.0544 24.7766 13.0544 24.7766C13.0544 24.7766 13.0544 24.7766 13.0544 24.7766C13.0544 24.7766 13.0544 24.7766 13.0544 24.7766C13.0544 24.7766 13.0544 24.7766 13.0544 24.7766C13.0544 24.7766 13.0544 24.7766 13.0544 24.7766C13.0544 24.7766 13.0544 24.7766 13.0544 24.7766C13.0544 24.7766 13.0544 24.7766 13.0544 24.7766C13.0544 24.7766 13.0544 24.7766 13.0544 24.7766C13.0544 24.7766 13.0544 24.7766 13.0544 24.7766C13.0544 24.7766 13.0544 24.7766 13.0544 24.7766C13.0544 24.7766 13.0544 24.7766 13.0544 24.7766C13.0544 24.7766 13.0544 24.7766 13.0544 24.7766C13.0544 24.7766 13.0544 24.7766 13.0544 24.7766C13.0544 24.7766 13.0544 24.7766 13.0544 24.7766C13.0544 24.7766 13.0544 24.7766 13.0544 24.7766C13.0544 24.7766 13.0544 24.7766 13.0544 24.7766C13.0544 24.7766 13.0544 24.7766 13.0544 24.7766C13.0544 24.7766 13.0544 24.7766 13.0544 24.7766C13.0544 24.7766 13.0544 24.7766 13.0544 24.7766C13.0544 24.7766 13.0544 24.7766 13.0544 24.7766C13.0544 24.7766 13.0544 24.7766 13.0544 24.7766C13.0544 24.7766 13.0544 24.7766 13.0544 24.7766C13.0544 24.7766 13.0544 24.7766 13.0544 24.7766C13.0544 24.7766 13.0544 24.7766 13.0544 24.7766C13.0544 24.7766 13.0544 24.7766 13.0544 24.7766C13.0544 24.7766 13.0544 24.7766 13.0544 24.7766C13.0544 24.7766 13.0544 24.7766 13.0544 24.7766C13.0544 24.7766 13.0544 24.7766 13.0544 24.7766C13.0544 24.7766 13.0544 24.7766 13.0544 24.7766C13.0544 24.7766 13.0544 24.7766 13.0544 24.7766C13.0544 24.7766 13.0544 24.7766 13.0544 24.7766C13.0544 24.7766 13.0544 24.7766 13.0544 24.7766C13.0544 24.7766 13.0544 24.7766 13.0544 24.7766C13.0544 24.7766 13.0544 24.7766 13.0544 24.7766C13.0544 24.7766 13.0544 24.7766 13.0544 24.7766C13.0544 24.7766 13.0544 24.7766 13.0544 24.7766C13.0544 24.7766 13.0544 24.7766 13.0544 24.7766C13.0544 24.7766 13.0544 24.7766 13.0544 24.7766C13.0544 24.7766 13.0544 24.7766 13.0544 24.7766C13.0544 24.7766 13.0544 24.7766 13.0544 24.7766C13.0544 24.7766 13.0544 24.7766 13.0544 24.7766C13.0544 24.7766 13.0544 24.7766 13.0544 24.7766C13.0544 24.7766 13.0544 24.7766 13.0544 24.7766C13.0544 24.7766 13.0544 24.7766 13.0544 24.7766C13.0544 24.7766 13.0544 24.7766 13.0544 24.7766C13.0544 24.7766 13.0544 24.7766 13.0544 24.7766C13.0544 24.7766 13.0544 24.7766 13.0544 24.7766C13.0544 24.7766 13.0544 24.7766 13.0544 24.7766C13.0544 24.7766 13.0544 24.7766 13.0544 24.7766C13.0544 24.7766 13.0544 24.7766 13.0544 24.7766C13.0544 24.7766 13.0544 24.7766 13.0544 24.7766C13.0544 24.7766 13.0544 24.7766 13.0544 24.7766C13.0544 24.7766 13.0544 24.7766 13.0544 24.7766C13.0544 24.7766 13.0544 24.7766 13.0544 24.7766C13.0544 24.7766 13.0544 24.7766 13.0544 24.7766C13.0544 24.7766 13.0544 24.7766 13.0544 24.7766C13.0544 24.7766 13.0544 24.7766 13.0544 24.7766C13.0544 24.7766 13.0544 24.7766 13.0544 24.7766C13.0544 24.7766 13.0544 24.7766 13.0544 24.7766C13.0544 24.7766 13.0544 24.7766 13.0544 24.7766C13.0544 24.7766 13.0544 24.7766 13.0544 24.7766C13.0544 24.7766 13.0544 24.7766 13.0544 24.7766C13.0544 24.7766 13.0544 24.7766 13.0544 24.7766C13.0544 24.7766 13.0544 24.7766 13.0544 24.7766C13.0544 24.7766 13.0544 24.7766 13.0544 24.7766C13.0544 24.7766 13.0544 24.7766 13.0544 24.7766C13.0544 24.7766 13.0544 24.7766 13.0544 24.7766C13.0544 24.7766 13.0544 24.7766 13.0544 24.7766C13.0544 24.7766 13.0544 24.7766 13.0544 24.7766C13.0544 24.7766 13.0544 24.7766 13.0544 24.7766C13.0544 24.7766 13.0544 24.7766 13.0544 24.7766C13.0544 24.7766 13.0544 24.7766 13.0544 24.7766C13.0544 24.7766 13.0544 24.7766 13.0544 24.7766C13.0544 24.7766 13.0544 24.7766 13.0543 24.7766C13.0543 24.7766 13.0543 24.7766 13.0543 24.7766C13.0543 24.7766 13.0543 24.7766 13.0543 24.7766C13.0543 24.7766 13.0543 24.7766 13.0543 24.7766C13.0543 24.7766 13.0543 24.7766 13.0543 24.7766C13.0543 24.7766 13.0543 24.7766 13.0543 24.7766C13.0543 24.7766 13.0543 24.7766 13.0543 24.7766C13.0543 24.7766 13.0543 24.7766 13.0543 24.7766C13.0543 24.7766 13.0543 24.7766 13.0543 24.7766C13.0543 24.7766 13.0543 24.7766 13.0543 24.7766C13.0543 24.7766 13.0543 24.7766 13.0543 24.7766C13.0543 24.7766 13.0543 24.7766 13.0543 24.7766C13.0543 24.7766 13.0543 24.7766 13.0543 24.7766C13.0543 24.7766 13.0543 24.7766 13.0543 24.7766C13.0543 24.7766 13.0543 24.7766 13.0543 24.7766C13.0543 24.7766 13.0543 24.7766 13.0543 24.7766C13.0543 24.7766 13.0543 24.7766 13.0543 24.7766C13.0543 24.7766 13.0543 24.7766 13.0543 24.7766C13.0543 24.7766 13.0543 24.7766 13.0543 24.7766C13.0543 24.7766 13.0543 24.7766 13.0543 24.7766C13.0543 24.7766 13.0543 24.7766 13.0543 24.7766C13.0543 24.7766 13.0543 24.7766 13.0543 24.7766C13.0543 24.7766 13.0543 24.7766 13.0543 24.7766C13.0543 24.7766 13.0543 24.7766 13.0543 24.7766C13.0543 24.7766 13.0543 24.7766 13.0543 24.7766C13.0543 24.7766 13.0543 24.7766 13.0543 24.7766C13.0543 24.7766 13.0543 24.7766 13.0543 24.7766C13.0543 24.7766 13.0543 24.7766 13.0543 24.7766C13.0543 24.7766 13.0543 24.7766 13.0543 24.7766C13.0543 24.7766 13.0543 24.7766 13.0543 24.7766C13.0543 24.7766 13.0543 24.7766 13.0543 24.7766C13.0543 24.7766 13.0543 24.7766 13.0543 24.7766C13.0543 24.7766 13.0543 24.7766 13.0543 24.7766C13.0543 24.7766 13.0543 24.7766 13.0543 24.7766C13.0543 24.7766 13.0543 24.7766 13.0543 24.7766C13.0543 24.7766 13.0543 24.7766 13.0543 24.7766C13.0543 24.7766 13.0543 24.7766 13.0543 24.7766C13.0543 24.7766 13.0543 24.7766 13.0543 24.7766C13.0543 24.7766 13.0543 24.7766 13.0543 24.7766C13.0543 24.7766 13.0543 24.7766 13.0543 24.7766C13.0543 24.7766 13.0543 24.7766 13.0543 24.7766C13.0543 24.7766 13.0543 24.7766 13.0543 24.7766C13.0543 24.7766 13.0543 24.7766 13.0543 24.7766C13.0543 24.7766 13.0543 24.7766 13.0543 24.7766C13.0543 24.7766 13.0543 24.7766 13.0543 24.7766C13.0543 24.7766 13.0543 24.7766 13.0543 24.7766C13.0543 24.7766 13.0543 24.7766 13.0543 24.7766C13.0543 24.7766 13.0543 24.7766 13.0543 24.7766C13.0543 24.7766 13.0543 24.7766 13.0543 24.7766C13.0543 24.7766 13.0543 24.7766 13.0543 24.7766C13.0543 24.7766 13.0543 24.7766 13.0543 24.7766C13.0543 24.7766 13.0543 24.7766 13.0543 24.7766C13.0543 24.7766 13.0543 24.7766 13.0543 24.7766C13.0543 24.7766 13.0543 24.7766 13.0543 24.7766C13.0543 24.7766 13.0543 24.7766 13.0543 24.7766C13.0543 24.7766 13.0543 24.7766 13.0543 24.7766C13.0543 24.7766 13.0543 24.7766 13.0543 24.7766C13.0543 24.7766 13.0543 24.7766 13.0543 24.7766C13.0543 24.7766 13.0543 24.7766 13.0543 24.7766C13.0543 24.7766 13.0543 24.7766 13.0543 24.7766C13.0543 24.7766 13.0543 24.7766 13.0543 24.7766C13.0543 24.7766 13.0543 24.7766 13.0543 24.7766C13.0543 24.7766 13.0543 24.7766 13.0543 24.7766C13.0543 24.7766 13.0543 24.7766 13.0543 24.7766C13.0543 24.7766 13.0543 24.7766 13.0543 24.7766C13.0543 24.7766 13.0543 24.7766 13.0543 24.7766C13.0543 24.7766 13.0543 24.7766 13.0543 24.7766C13.0543 24.7766 13.0543 24.7766 13.0543 24.7766C13.0543 24.7766 13.0543 24.7766 13.0543 24.7766C13.0543 24.7766 13.0543 24.7766 13.0543 24.7766C13.0543 24.7766 13.0543 24.7766 13.0543 24.7766C13.0543 24.7766 13.0543 24.7766 13.0543 24.7766C13.0543 24.7766 13.0543 24.7766 13.0543 24.7766C13.0543 24.7766 13.0543 24.7766 13.0543 24.7766C13.0543 24.7766 13.0543 24.7766 13.0543 24.7766C13.0543 24.7766 13.0543 24.7766 13.0543 24.7766C13.0543 24.7766 13.0543 24.7766 13.0543 24.7766C13.0543 24.7766 13.0543 24.7766 13.0543 24.7766C13.0543 24.7766 13.0543 24.7766 13.0543 24.7766C13.0543 24.7766 13.0543 24.7766 13.0543 24.7766C13.0543 24.7766 13.0543 24.7766 13.0543 24.7766C13.0543 24.7766 13.0543 24.7766 13.0543 24.7766C13.0543 24.7766 13.0543 24.7766 13.0543 24.7766C13.0543 24.7766 13.0543 24.7766 13.0543 24.7766C13.0543 24.7766 13.0543 24.7766 13.0543 24.7766C13.0543 24.7766 13.0543 24.7766 13.0543 24.7766C13.0543 24.7766 13.0543 24.7766 13.0543 24.7766C13.0543 24.7766 13.0543 24.7766 13.0543 24.7766C13.0543 24.7766 13.0543 24.7766 13.0543 24.7766C13.0543 24.7766 13.0543 24.7766 13.0543 24.7766C13.0543 24.7766 13.0543 24.7766 13.0543 24.7766C13.0543 24.7766 13.0543 24.7766 13.0543 24.7766C13.0543 24.7766 13.0543 24.7766 13.0543 24.7766C13.0543 24.7766 13.0543 24.7766 13.0543 24.7766C13.0543 24.7766 13.0543 24.7766 13.0543 24.7766C13.0543 24.7766 13.0543 24.7766 13.0543 24.7766C13.0543 24.7766 13.0543 24.7766 13.0543 24.7766C13.0543 24.7766 13.0543 24.7766 13.0543 24.7766C13.0543 24.7766 13.0543 24.7766 13.0543 24.7766C13.0543 24.7766 13.0543 24.7766 13.0543 24.7766C13.0543 24.7766 13.0543 24.7766 13.0543 24.7766C13.0543 24.7766 13.0543 24.7766 13.0543 24.7766C13.0543 24.7766 13.0543 24.7766 13.0543 24.7766C13.0543 24.7766 13.0543 24.7766 13.0543 24.7766C13.0542 24.7766 13.0542 24.7766 13.0542 24.7766C13.0542 24.7766 13.0542 24.7766 13.0542 24.7766C13.0542 24.7766 13.0542 24.7766 13.0542 24.7766C13.0542 24.7766 13.0542 24.7766 13.0542 24.7766C13.0542 24.7766 13.0542 24.7766 13.0542 24.7766C13.0542 24.7766 13.0542 24.7766 13.0542 24.7766C13.0542 24.7766 13.0542 24.7766 13.0542 24.7766C13.0542 24.7766 13.0542 24.7766 13.0542 24.7766C13.0542 24.7766 13.0542 24.7766 13.0542 24.7766C13.0542 24.7766 13.0542 24.7766 13.0542 24.7766C13.0542 24.7766 13.0542 24.7766 13.0542 24.7766C13.0542 24.7766 13.0542 24.7766 13.0542 24.7766C13.0542 24.7766 13.0542 24.7766 13.0542 24.7766C13.0542 24.7766 13.0542 24.7766 13.0542 24.7766C13.0542 24.7766 13.0542 24.7766 13.0542 24.7766C13.0542 24.7766 13.0542 24.7766 13.0542 24.7766C13.0542 24.7766 13.0542 24.7766 13.0542 24.7766C13.0542 24.7766 13.0542 24.7766 13.0542 24.7766C13.0542 24.7766 13.0542 24.7766 13.0542 24.7766C13.0542 24.7766 13.0542 24.7766 13.0542 24.7766C13.0542 24.7766 13.0542 24.7766 13.0542 24.7766C13.0542 24.7766 13.0542 24.7766 13.0542 24.7766C13.0542 24.7766 13.0542 24.7766 13.0542 24.7766C13.0542 24.7766 13.0542 24.7766 13.0542 24.7766C13.0542 24.7766 13.0542 24.7766 13.0542 24.7766C13.0542 24.7766 13.0542 24.7766 13.0542 24.7766C13.0542 24.7766 13.0542 24.7766 13.0542 24.7766C13.0542 24.7766 13.0542 24.7766 13.0542 24.7766C13.0542 24.7766 13.0542 24.7766 13.0542 24.7766C13.0542 24.7766 13.0542 24.7766 13.0542 24.7766C13.0542 24.7766 13.0542 24.7766 13.0542 24.7766C13.0542 24.7766 13.0542 24.7766 13.0542 24.7766C13.0542 24.7766 13.0542 24.7766 13.0542 24.7766C13.0542 24.7766 13.0542 24.7766 13.0542 24.7766C13.0542 24.7766 13.0542 25.7766 13.0542 26.7766C13.0542 26.7766 13.0542 26.7766 13.0542 26.7766C13.0542 26.7766 13.0542 26.7766 13.0542 26.7766C13.0542 26.7766 13.0542 26.7766 13.0542 26.7766C13.0542 26.7766 13.0542 26.7766 13.0542 26.7766C13.0542 26.7766 13.0542 26.7766 13.0542 26.7766C13.0542 26.7766 13.0542 26.7766 13.0542 26.7766C13.0542 26.7766 13.0542 26.7766 13.0542 26.7766C13.0542 26.7766 13.0542 26.7766 13.0542 26.7766C13.0542 26.7766 13.0542 26.7766 13.0542 26.7766C13.0542 26.7766 13.0542 26.7766 13.0542 26.7766C13.0542 26.7766 13.0542 26.7766 13.0542 26.7766C13.0542 26.7766 13.0542 26.7766 13.0542 26.7766C13.0542 26.7766 13.0542 26.7766 13.0542 26.7766C13.0542 26.7766 13.0542 26.7766 13.0542 26.7766C13.0542 26.7766 13.0542 26.7766 13.0542 26.7766C13.0542 26.7766 13.0542 26.7766 13.0542 26.7766C13.0542 26.7766 13.0542 26.7766 13.0542 26.7766C13.0542 26.7766 13.0542 26.7766 13.0542 26.7766C13.0542 26.7766 13.0542 26.7766 13.0542 26.7766C13.0542 26.7766 13.0542 26.7766 13.0542 26.7766C13.0542 26.7766 13.0542 26.7766 13.0542 26.7766C13.0542 26.7766 13.0542 26.7766 13.0542 26.7766C13.0542 26.7766 13.0542 26.7766 13.0542 26.7766C13.0542 26.7766 13.0542 26.7766 13.0542 26.7766C13.0542 26.7766 13.0542 26.7766 13.0542 26.7766C13.0542 26.7766 13.0542 26.7766 13.0542 26.7766C13.0542 26.7766 13.0542 26.7766 13.0542 26.7766C13.0542 26.7766 13.0542 26.7766 13.0542 26.7766C13.0542 26.7766 13.0542 26.7766 13.0542 26.7766C13.0542 26.7766 13.0542 26.7766 13.0542 26.7766C13.0542 26.7766 13.0542 26.7766 13.0542 26.7766C13.0542 26.7766 13.0542 26.7766 13.0543 26.7766C13.0543 26.7766 13.0543 26.7766 13.0543 26.7766C13.0543 26.7766 13.0543 26.7766 13.0543 26.7766C13.0543 26.7766 13.0543 26.7766 13.0543 26.7766C13.0543 26.7766 13.0543 26.7766 13.0543 26.7766C13.0543 26.7766 13.0543 26.7766 13.0543 26.7766C13.0543 26.7766 13.0543 26.7766 13.0543 26.7766C13.0543 26.7766 13.0543 26.7766 13.0543 26.7766C13.0543 26.7766 13.0543 26.7766 13.0543 26.7766C13.0543 26.7766 13.0543 26.7766 13.0543 26.7766C13.0543 26.7766 13.0543 26.7766 13.0543 26.7766C13.0543 26.7766 13.0543 26.7766 13.0543 26.7766C13.0543 26.7766 13.0543 26.7766 13.0543 26.7766C13.0543 26.7766 13.0543 26.7766 13.0543 26.7766C13.0543 26.7766 13.0543 26.7766 13.0543 26.7766C13.0543 26.7766 13.0543 26.7766 13.0543 26.7766C13.0543 26.7766 13.0543 26.7766 13.0543 26.7766C13.0543 26.7766 13.0543 26.7766 13.0543 26.7766C13.0543 26.7766 13.0543 26.7766 13.0543 26.7766C13.0543 26.7766 13.0543 26.7766 13.0543 26.7766C13.0543 26.7766 13.0543 26.7766 13.0543 26.7766C13.0543 26.7766 13.0543 26.7766 13.0543 26.7766C13.0543 26.7766 13.0543 26.7766 13.0543 26.7766C13.0543 26.7766 13.0543 26.7766 13.0543 26.7766C13.0543 26.7766 13.0543 26.7766 13.0543 26.7766C13.0543 26.7766 13.0543 26.7766 13.0543 26.7766C13.0543 26.7766 13.0543 26.7766 13.0543 26.7766C13.0543 26.7766 13.0543 26.7766 13.0543 26.7766C13.0543 26.7766 13.0543 26.7766 13.0543 26.7766C13.0543 26.7766 13.0543 26.7766 13.0543 26.7766C13.0543 26.7766 13.0543 26.7766 13.0543 26.7766C13.0543 26.7766 13.0543 26.7766 13.0543 26.7766C13.0543 26.7766 13.0543 26.7766 13.0543 26.7766C13.0543 26.7766 13.0543 26.7766 13.0543 26.7766C13.0543 26.7766 13.0543 26.7766 13.0543 26.7766C13.0543 26.7766 13.0543 26.7766 13.0543 26.7766C13.0543 26.7766 13.0543 26.7766 13.0543 26.7766C13.0543 26.7766 13.0543 26.7766 13.0543 26.7766C13.0543 26.7766 13.0543 26.7766 13.0543 26.7766C13.0543 26.7766 13.0543 26.7766 13.0543 26.7766C13.0543 26.7766 13.0543 26.7766 13.0543 26.7766C13.0543 26.7766 13.0543 26.7766 13.0543 26.7766C13.0543 26.7766 13.0543 26.7766 13.0543 26.7766C13.0543 26.7766 13.0543 26.7766 13.0543 26.7766C13.0543 26.7766 13.0543 26.7766 13.0543 26.7766C13.0543 26.7766 13.0543 26.7766 13.0543 26.7766C13.0543 26.7766 13.0543 26.7766 13.0543 26.7766C13.0543 26.7766 13.0543 26.7766 13.0543 26.7766C13.0543 26.7766 13.0543 26.7766 13.0543 26.7766C13.0543 26.7766 13.0543 26.7766 13.0543 26.7766C13.0543 26.7766 13.0543 26.7766 13.0543 26.7766C13.0543 26.7766 13.0543 26.7766 13.0543 26.7766C13.0543 26.7766 13.0543 26.7766 13.0543 26.7766C13.0543 26.7766 13.0543 26.7766 13.0543 26.7766C13.0543 26.7766 13.0543 26.7766 13.0543 26.7766C13.0543 26.7766 13.0543 26.7766 13.0543 26.7766C13.0543 26.7766 13.0543 26.7766 13.0543 26.7766C13.0543 26.7766 13.0543 26.7766 13.0543 26.7766C13.0543 26.7766 13.0543 26.7766 13.0543 26.7766C13.0543 26.7766 13.0543 26.7766 13.0543 26.7766C13.0543 26.7766 13.0543 26.7766 13.0543 26.7766C13.0543 26.7766 13.0543 26.7766 13.0543 26.7766C13.0543 26.7766 13.0543 26.7766 13.0543 26.7766C13.0543 26.7766 13.0543 26.7766 13.0543 26.7766C13.0543 26.7766 13.0543 26.7766 13.0543 26.7766C13.0543 26.7766 13.0543 26.7766 13.0543 26.7766C13.0543 26.7766 13.0543 26.7766 13.0543 26.7766C13.0543 26.7766 13.0543 26.7766 13.0543 26.7766C13.0543 26.7766 13.0543 26.7766 13.0543 26.7766C13.0543 26.7766 13.0543 26.7766 13.0543 26.7766C13.0543 26.7766 13.0543 26.7766 13.0543 26.7766C13.0543 26.7766 13.0543 26.7766 13.0544 26.7766C13.0544 26.7766 13.0544 26.7766 13.0544 26.7766C13.0544 26.7766 13.0544 26.7766 13.0544 26.7766C13.0544 26.7766 13.0544 26.7766 13.0544 26.7766C13.0544 26.7766 13.0544 26.7766 13.0544 26.7766C13.0544 26.7766 13.0544 26.7766 13.0544 26.7766V24.7766C13.0544 24.7766 13.0544 24.7766 13.0544 24.7766C13.0544 24.7766 13.0544 24.7766 13.0544 24.7766C13.0544 24.7766 13.0544 24.7766 13.0544 24.7766C13.0544 24.7766 13.0544 24.7766 13.0544 24.7766C13.0544 24.7766 13.0544 24.7766 13.0544 24.7766C13.0543 24.7766 13.0543 24.7766 13.0543 24.7766C13.0543 24.7766 13.0543 24.7766 13.0543 24.7766C13.0543 24.7766 13.0543 24.7766 13.0543 24.7766C13.0543 24.7766 13.0543 24.7766 13.0543 24.7766C13.0543 24.7766 13.0543 24.7766 13.0543 24.7766C13.0543 24.7766 13.0543 24.7766 13.0543 24.7766C13.0543 24.7766 13.0543 24.7766 13.0543 24.7766C13.0543 24.7766 13.0543 24.7766 13.0543 24.7766C13.0543 24.7766 13.0543 24.7766 13.0543 24.7766C13.0543 24.7766 13.0543 24.7766 13.0543 24.7766C13.0543 24.7766 13.0543 24.7766 13.0543 24.7766C13.0543 24.7766 13.0543 24.7766 13.0543 24.7766C13.0543 24.7766 13.0543 24.7766 13.0543 24.7766C13.0543 24.7766 13.0543 24.7766 13.0543 24.7766C13.0543 24.7766 13.0543 24.7766 13.0543 24.7766C13.0543 24.7766 13.0543 24.7766 13.0543 24.7766C13.0543 24.7766 13.0543 24.7766 13.0543 24.7766C13.0543 24.7766 13.0543 24.7766 13.0543 24.7766C13.0543 24.7766 13.0543 24.7766 13.0543 24.7766C13.0543 24.7766 13.0543 24.7766 13.0543 24.7766C13.0543 24.7766 13.0543 24.7766 13.0543 24.7766C13.0543 24.7766 13.0543 24.7766 13.0543 24.7766C13.0543 24.7766 13.0543 24.7766 13.0543 24.7766C13.0543 24.7766 13.0543 24.7766 13.0543 24.7766C13.0543 24.7766 13.0543 24.7766 13.0543 24.7766C13.0543 24.7766 13.0543 24.7766 13.0543 24.7766C13.0543 24.7766 13.0543 24.7766 13.0543 24.7766C13.0543 24.7766 13.0543 24.7766 13.0543 24.7766C13.0543 24.7766 13.0543 24.7766 13.0543 24.7766C13.0543 24.7766 13.0543 24.7766 13.0543 24.7766C13.0543 24.7766 13.0543 24.7766 13.0543 24.7766C13.0543 24.7766 13.0543 24.7766 13.0543 24.7766C13.0543 24.7766 13.0543 24.7766 13.0543 24.7766C13.0543 24.7766 13.0543 24.7766 13.0543 24.7766C13.0543 24.7766 13.0543 24.7766 13.0543 24.7766C13.0543 24.7766 13.0543 24.7766 13.0543 24.7766C13.0543 24.7766 13.0543 24.7766 13.0543 24.7766C13.0543 24.7766 13.0543 24.7766 13.0543 24.7766C13.0543 24.7766 13.0543 24.7766 13.0543 24.7766C13.0543 24.7766 13.0543 24.7766 13.0543 24.7766C13.0543 24.7766 13.0543 24.7766 13.0543 24.7766C13.0543 24.7766 13.0543 24.7766 13.0543 24.7766C13.0543 24.7766 13.0543 24.7766 13.0543 24.7766C13.0543 24.7766 13.0543 24.7766 13.0543 24.7766C13.0543 24.7766 13.0543 24.7766 13.0543 24.7766C13.0543 24.7766 13.0543 24.7766 13.0543 24.7766C13.0543 24.7766 13.0543 24.7766 13.0543 24.7766C13.0543 24.7766 13.0543 24.7766 13.0543 24.7766C13.0543 24.7766 13.0543 24.7766 13.0543 24.7766C13.0543 24.7766 13.0543 24.7766 13.0543 24.7766C13.0543 24.7766 13.0543 24.7766 13.0543 24.7766C13.0543 24.7766 13.0543 24.7766 13.0543 24.7766C13.0543 24.7766 13.0543 24.7766 13.0543 24.7766C13.0543 24.7766 13.0543 24.7766 13.0543 24.7766C13.0543 24.7766 13.0543 24.7766 13.0543 24.7766C13.0543 24.7766 13.0543 24.7766 13.0543 24.7766C13.0543 24.7766 13.0543 24.7766 13.0543 24.7766C13.0543 24.7766 13.0543 24.7766 13.0543 24.7766C13.0543 24.7766 13.0543 24.7766 13.0543 24.7766C13.0543 24.7766 13.0543 24.7766 13.0543 24.7766C13.0543 24.7766 13.0543 24.7766 13.0543 24.7766C13.0543 24.7766 13.0543 24.7766 13.0543 24.7766C13.0543 24.7766 13.0543 24.7766 13.0543 24.7766C13.0543 24.7766 13.0543 24.7766 13.0543 24.7766C13.0543 24.7766 13.0543 24.7766 13.0543 24.7766C13.0543 24.7766 13.0543 24.7766 13.0543 24.7766C13.0543 24.7766 13.0543 24.7766 13.0543 24.7766C13.0543 24.7766 13.0543 24.7766 13.0543 24.7766C13.0543 24.7766 13.0543 24.7766 13.0543 24.7766C13.0543 24.7766 13.0543 24.7766 13.0543 24.7766C13.0543 24.7766 13.0543 24.7766 13.0543 24.7766C13.0542 24.7766 13.0542 24.7766 13.0542 24.7766C13.0542 24.7766 13.0542 24.7766 13.0542 24.7766C13.0542 24.7766 13.0542 24.7766 13.0542 24.7766C13.0542 24.7766 13.0542 24.7766 13.0542 24.7766C13.0542 24.7766 13.0542 24.7766 13.0542 24.7766C13.0542 24.7766 13.0542 24.7766 13.0542 24.7766C13.0542 24.7766 13.0542 24.7766 13.0542 24.7766C13.0542 24.7766 13.0542 24.7766 13.0542 24.7766C13.0542 24.7766 13.0542 24.7766 13.0542 24.7766C13.0542 24.7766 13.0542 24.7766 13.0542 24.7766C13.0542 24.7766 13.0542 24.7766 13.0542 24.7766C13.0542 24.7766 13.0542 24.7766 13.0542 24.7766C13.0542 24.7766 13.0542 24.7766 13.0542 24.7766C13.0542 24.7766 13.0542 24.7766 13.0542 24.7766C13.0542 24.7766 13.0542 24.7766 13.0542 24.7766C13.0542 24.7766 13.0542 24.7766 13.0542 24.7766C13.0542 24.7766 13.0542 24.7766 13.0542 24.7766C13.0542 24.7766 13.0542 24.7766 13.0542 24.7766C13.0542 24.7766 13.0542 24.7766 13.0542 24.7766C13.0542 24.7766 13.0542 24.7766 13.0542 24.7766C13.0542 24.7766 13.0542 24.7766 13.0542 24.7766C13.0542 24.7766 13.0542 24.7766 13.0542 24.7766C13.0542 24.7766 13.0542 24.7766 13.0542 24.7766C13.0542 24.7766 13.0542 24.7766 13.0542 24.7766C13.0542 24.7766 13.0542 24.7766 13.0542 24.7766C13.0542 24.7766 13.0542 24.7766 13.0542 24.7766C13.0542 24.7766 13.0542 24.7766 13.0542 24.7766C13.0542 24.7766 13.0542 24.7766 13.0542 24.7766C13.0542 24.7766 13.0542 24.7766 13.0542 24.7766C13.0542 24.7766 13.0542 24.7766 13.0542 24.7766C13.0542 24.7766 13.0542 24.7766 13.0542 24.7766C13.0542 24.7766 13.0542 24.7766 13.0542 24.7766C13.0542 25.7766 13.0542 26.7766 13.0542 26.7766C13.0542 26.7766 13.0542 26.7766 13.0542 26.7766C13.0542 26.7766 13.0542 26.7766 13.0542 26.7766C13.0542 26.7766 13.0542 26.7766 13.0542 26.7766C13.0542 26.7766 13.0542 26.7766 13.0542 26.7766C13.0542 26.7766 13.0542 26.7766 13.0542 26.7766C13.0542 26.7766 13.0542 26.7766 13.0542 26.7766C13.0542 26.7766 13.0542 26.7766 13.0542 26.7766C13.0542 26.7766 13.0542 26.7766 13.0542 26.7766C13.0542 26.7766 13.0542 26.7766 13.0542 26.7766C13.0542 26.7766 13.0542 26.7766 13.0542 26.7766C13.0542 26.7766 13.0542 26.7766 13.0542 26.7766C13.0542 26.7766 13.0542 26.7766 13.0542 26.7766C13.0542 26.7766 13.0542 26.7766 13.0542 26.7766C13.0542 26.7766 13.0542 26.7766 13.0542 26.7766C13.0542 26.7766 13.0542 26.7766 13.0542 26.7766C13.0542 26.7766 13.0542 26.7766 13.0542 26.7766C13.0542 26.7766 13.0542 26.7766 13.0542 26.7766C13.0542 26.7766 13.0542 26.7766 13.0542 26.7766C13.0542 26.7766 13.0542 26.7766 13.0542 26.7766C13.0542 26.7766 13.0542 26.7766 13.0542 26.7766C13.0542 26.7766 13.0542 26.7766 13.0542 26.7766C13.0542 26.7766 13.0542 26.7766 13.0542 26.7766C13.0542 26.7766 13.0542 26.7766 13.0542 26.7766C13.0542 26.7766 13.0542 26.7766 13.0542 26.7766C13.0542 26.7766 13.0542 26.7766 13.0542 26.7766C13.0542 26.7766 13.0542 26.7766 13.0542 26.7766C13.0542 26.7766 13.0542 26.7766 13.0542 26.7766C13.0542 26.7766 13.0542 26.7766 13.0542 26.7766C13.0542 26.7766 13.0542 26.7766 13.0542 26.7766C13.0542 26.7766 13.0542 26.7766 13.0542 26.7766C13.0542 26.7766 13.0542 26.7766 13.0542 26.7766C13.0542 26.7766 13.0542 26.7766 13.0542 26.7766C13.0542 26.7766 13.0542 26.7766 13.0542 26.7766C13.0542 26.7766 13.0542 26.7766 13.0543 26.7766C13.0543 26.7766 13.0543 26.7766 13.0543 26.7766C13.0543 26.7766 13.0543 26.7766 13.0543 26.7766C13.0543 26.7766 13.0543 26.7766 13.0543 26.7766C13.0543 26.7766 13.0543 26.7766 13.0543 26.7766C13.0543 26.7766 13.0543 26.7766 13.0543 26.7766C13.0543 26.7766 13.0543 26.7766 13.0543 26.7766C13.0543 26.7766 13.0543 26.7766 13.0543 26.7766C13.0543 26.7766 13.0543 26.7766 13.0543 26.7766C13.0543 26.7766 13.0543 26.7766 13.0543 26.7766C13.0543 26.7766 13.0543 26.7766 13.0543 26.7766C13.0543 26.7766 13.0543 26.7766 13.0543 26.7766C13.0543 26.7766 13.0543 26.7766 13.0543 26.7766C13.0543 26.7766 13.0543 26.7766 13.0543 26.7766C13.0543 26.7766 13.0543 26.7766 13.0543 26.7766C13.0543 26.7766 13.0543 26.7766 13.0543 26.7766C13.0543 26.7766 13.0543 26.7766 13.0543 26.7766C13.0543 26.7766 13.0543 26.7766 13.0543 26.7766C13.0543 26.7766 13.0543 26.7766 13.0543 26.7766C13.0543 26.7766 13.0543 26.7766 13.0543 26.7766C13.0543 26.7766 13.0543 26.7766 13.0543 26.7766C13.0543 26.7766 13.0543 26.7766 13.0543 26.7766C13.0543 26.7766 13.0543 26.7766 13.0543 26.7766C13.0543 26.7766 13.0543 26.7766 13.0543 26.7766C13.0543 26.7766 13.0543 26.7766 13.0543 26.7766C13.0543 26.7766 13.0543 26.7766 13.0543 26.7766C13.0543 26.7766 13.0543 26.7766 13.0543 26.7766C13.0543 26.7766 13.0543 26.7766 13.0543 26.7766C13.0543 26.7766 13.0543 26.7766 13.0543 26.7766C13.0543 26.7766 13.0543 26.7766 13.0543 26.7766C13.0543 26.7766 13.0543 26.7766 13.0543 26.7766C13.0543 26.7766 13.0543 26.7766 13.0543 26.7766C13.0543 26.7766 13.0543 26.7766 13.0543 26.7766C13.0543 26.7766 13.0543 26.7766 13.0543 26.7766C13.0543 26.7766 13.0543 26.7766 13.0543 26.7766C13.0543 26.7766 13.0543 26.7766 13.0543 26.7766C13.0543 26.7766 13.0543 26.7766 13.0543 26.7766C13.0543 26.7766 13.0543 26.7766 13.0543 26.7766C13.0543 26.7766 13.0543 26.7766 13.0543 26.7766C13.0543 26.7766 13.0543 26.7766 13.0543 26.7766C13.0543 26.7766 13.0543 26.7766 13.0543 26.7766C13.0543 26.7766 13.0543 26.7766 13.0543 26.7766C13.0543 26.7766 13.0543 26.7766 13.0543 26.7766C13.0543 26.7766 13.0543 26.7766 13.0543 26.7766C13.0543 26.7766 13.0543 26.7766 13.0543 26.7766C13.0543 26.7766 13.0543 26.7766 13.0543 26.7766C13.0543 26.7766 13.0543 26.7766 13.0543 26.7766C13.0543 26.7766 13.0543 26.7766 13.0543 26.7766C13.0543 26.7766 13.0543 26.7766 13.0543 26.7766C13.0543 26.7766 13.0543 26.7766 13.0543 26.7766C13.0543 26.7766 13.0543 26.7766 13.0543 26.7766C13.0543 26.7766 13.0543 26.7766 13.0543 26.7766C13.0543 26.7766 13.0543 26.7766 13.0543 26.7766C13.0543 26.7766 13.0543 26.7766 13.0543 26.7766C13.0543 26.7766 13.0543 26.7766 13.0543 26.7766C13.0543 26.7766 13.0543 26.7766 13.0543 26.7766C13.0543 26.7766 13.0543 26.7766 13.0543 26.7766C13.0543 26.7766 13.0543 26.7766 13.0543 26.7766C13.0543 26.7766 13.0543 26.7766 13.0543 26.7766C13.0543 26.7766 13.0543 26.7766 13.0543 26.7766C13.0543 26.7766 13.0543 26.7766 13.0543 26.7766C13.0543 26.7766 13.0543 26.7766 13.0543 26.7766C13.0543 26.7766 13.0543 26.7766 13.0543 26.7766C13.0543 26.7766 13.0543 26.7766 13.0543 26.7766C13.0543 26.7766 13.0543 26.7766 13.0543 26.7766C13.0543 26.7766 13.0543 26.7766 13.0543 26.7766C13.0543 26.7766 13.0543 26.7766 13.0543 26.7766C13.0543 26.7766 13.0543 26.7766 13.0543 26.7766C13.0543 26.7766 13.0543 26.7766 13.0543 26.7766C13.0543 26.7766 13.0543 26.7766 13.0543 26.7766C13.0543 26.7766 13.0543 26.7766 13.0543 26.7766C13.0543 26.7766 13.0543 26.7766 13.0543 26.7766C13.0543 26.7766 13.0543 26.7766 13.0543 26.7766C13.0543 26.7766 13.0543 26.7766 13.0543 26.7766C13.0543 26.7766 13.0543 26.7766 13.0543 26.7766C13.0543 26.7766 13.0543 26.7766 13.0543 26.7766C13.0543 26.7766 13.0543 26.7766 13.0543 26.7766C13.0543 26.7766 13.0543 26.7766 13.0543 26.7766C13.0543 26.7766 13.0543 26.7766 13.0543 26.7766C13.0543 26.7766 13.0543 26.7766 13.0543 26.7766C13.0543 26.7766 13.0543 26.7766 13.0543 26.7766C13.0543 26.7766 13.0543 26.7766 13.0543 26.7766C13.0543 26.7766 13.0543 26.7766 13.0543 26.7766C13.0543 26.7766 13.0543 26.7766 13.0543 26.7766C13.0543 26.7766 13.0543 26.7766 13.0543 26.7766C13.0543 26.7766 13.0543 26.7766 13.0543 26.7766C13.0543 26.7766 13.0543 26.7766 13.0543 26.7766C13.0543 26.7766 13.0543 26.7766 13.0543 26.7766C13.0543 26.7766 13.0543 26.7766 13.0543 26.7766C13.0543 26.7766 13.0543 26.7766 13.0543 26.7766C13.0543 26.7766 13.0543 26.7766 13.0543 26.7766C13.0543 26.7766 13.0543 26.7766 13.0543 26.7766C13.0543 26.7766 13.0543 26.7766 13.0543 26.7766C13.0543 26.7766 13.0543 26.7766 13.0543 26.7766C13.0543 26.7766 13.0543 26.7766 13.0543 26.7766C13.0543 26.7766 13.0543 26.7766 13.0543 26.7766C13.0543 26.7766 13.0543 26.7766 13.0543 26.7766C13.0543 26.7766 13.0543 26.7766 13.0543 26.7766C13.0543 26.7766 13.0543 26.7766 13.0543 26.7766C13.0543 26.7766 13.0543 26.7766 13.0543 26.7766C13.0543 26.7766 13.0543 26.7766 13.0543 26.7766C13.0543 26.7766 13.0543 26.7766 13.0543 26.7766C13.0543 26.7766 13.0543 26.7766 13.0543 26.7766C13.0543 26.7766 13.0543 26.7766 13.0543 26.7766C13.0544 26.7766 13.0544 26.7766 13.0544 26.7766C13.0544 26.7766 13.0544 26.7766 13.0544 26.7766C13.0544 26.7766 13.0544 26.7766 13.0544 26.7766C13.0544 26.7766 13.0544 26.7766 13.0544 26.7766C13.0544 26.7766 13.0544 26.7766 13.0544 26.7766C13.0544 26.7766 13.0544 26.7766 13.0544 26.7766C13.0544 26.7766 13.0544 26.7766 13.0544 26.7766C13.0544 26.7766 13.0544 26.7766 13.0544 26.7766C13.0544 26.7766 13.0544 26.7766 13.0544 26.7766C13.0544 26.7766 13.0544 26.7766 13.0544 26.7766C13.0544 26.7766 13.0544 26.7766 13.0544 26.7766C13.0544 26.7766 13.0544 26.7766 13.0544 26.7766C13.0544 26.7766 13.0544 26.7766 13.0544 26.7766C13.0544 26.7766 13.0544 26.7766 13.0544 26.7766C13.0544 26.7766 13.0544 26.7766 13.0544 26.7766C13.0544 26.7766 13.0544 26.7766 13.0544 26.7766C13.0544 26.7766 13.0544 26.7766 13.0544 26.7766C13.0544 26.7766 13.0544 26.7766 13.0544 26.7766C13.0544 26.7766 13.0544 26.7766 13.0544 26.7766C13.0544 26.7766 13.0544 26.7766 13.0544 26.7766C13.0544 26.7766 13.0544 26.7766 13.0544 26.7766C13.0544 26.7766 13.0544 26.7766 13.0544 26.7766C13.0544 26.7766 13.0544 26.7766 13.0544 26.7766C13.0544 26.7766 13.0544 26.7766 13.0544 26.7766C13.0544 26.7766 13.0544 26.7766 13.0544 26.7766C13.0544 26.7766 13.0544 26.7766 13.0544 26.7766C13.0544 26.7766 13.0544 26.7766 13.0544 26.7766C13.0544 26.7766 13.0544 26.7766 13.0544 26.7766C13.0544 26.7766 13.0544 26.7766 13.0544 26.7766C13.0544 26.7766 13.0544 26.7766 13.0544 26.7766C13.0544 26.7766 13.0544 26.7766 13.0544 26.7766C13.0544 26.7766 13.0544 26.7766 13.0544 26.7766C13.0544 26.7766 13.0544 26.7766 13.0544 26.7766C13.0544 26.7766 13.0544 26.7766 13.0544 26.7766C13.0544 26.7766 13.0544 26.7766 13.0544 26.7766C13.0544 26.7766 13.0544 26.7766 13.0544 26.7766C13.0544 26.7766 13.0544 26.7766 13.0544 26.7766C13.0544 26.7766 13.0544 26.7766 13.0544 26.7766C13.0544 26.7766 13.0544 26.7766 13.0544 26.7766C13.0544 26.7766 13.0544 26.7766 13.0544 26.7766C13.0544 26.7766 13.0544 26.7766 13.0544 26.7766C13.0544 26.7766 13.0544 26.7766 13.0544 26.7766C13.0544 26.7766 13.0544 26.7766 13.0544 26.7766C13.0544 26.7766 13.0544 26.7766 13.0544 26.7766C13.0544 26.7766 13.0544 26.7766 13.0544 26.7766C13.0544 26.7766 13.0544 26.7766 13.0544 26.7766C13.0544 26.7766 13.0544 26.7766 13.0544 26.7766C13.0544 26.7766 13.0544 26.7766 13.0544 26.7766C13.0544 26.7766 13.0544 26.7766 13.0544 26.7766C13.0544 26.7766 13.0544 26.7766 13.0544 26.7766C13.0544 26.7766 13.0544 26.7766 13.0544 26.7766C13.0544 26.7766 13.0544 26.7766 13.0544 26.7766C13.0544 26.7766 13.0544 26.7766 13.0544 26.7766C13.0544 26.7766 13.0544 26.7766 13.0544 26.7766C13.0544 26.7766 13.0544 26.7766 13.0544 26.7766C13.0544 26.7766 13.0544 26.7766 13.0544 26.7766C13.0544 26.7766 13.0544 26.7766 13.0544 26.7766C13.0544 26.7766 13.0544 26.7766 13.0544 26.7766C13.0544 26.7766 13.0544 26.7766 13.0544 26.7766C13.0544 26.7766 13.0544 26.7766 13.0544 26.7766C13.0544 26.7766 13.0544 26.7766 13.0544 26.7766C13.0544 26.7766 13.0544 26.7766 13.0544 26.7766C13.0544 26.7766 13.0544 26.7766 13.0544 26.7766C13.0544 26.7766 13.0544 26.7766 13.0544 26.7766C13.0544 26.7766 13.0544 26.7766 13.0544 26.7766C13.0544 26.7766 13.0544 26.7766 13.0544 26.7766C13.0544 26.7766 13.0544 26.7766 13.0544 26.7766C13.0544 26.7766 13.0544 26.7766 13.0544 26.7766C13.0544 26.7766 13.0544 26.7766 13.0544 26.7766C13.0544 26.7766 13.0544 26.7766 13.0544 26.7766C13.0544 26.7766 13.0544 26.7766 13.0544 26.7766C13.0544 26.7766 13.0544 26.7766 13.0544 26.7766C13.0544 26.7766 13.0544 26.7766 13.0544 26.7766C13.0544 26.7766 13.0544 26.7766 13.0544 26.7766C13.0544 26.7766 13.0544 26.7766 13.0544 26.7766C13.0544 26.7766 13.0544 26.7766 13.0544 26.7766C13.0544 26.7766 13.0544 26.7766 13.0544 26.7766C13.0544 26.7766 13.0544 26.7766 13.0544 26.7766C13.0544 26.7766 13.0544 26.7766 13.0544 26.7766C13.0544 26.7766 13.0544 26.7766 13.0544 26.7766C13.0544 26.7766 13.0544 26.7766 13.0544 26.7766C13.0544 26.7766 13.0544 26.7766 13.0544 26.7766C13.0544 26.7766 13.0544 26.7766 13.0544 26.7766C13.0544 26.7766 13.0544 26.7766 13.0544 26.7766C13.0544 26.7766 13.0544 26.7766 13.0544 26.7766C13.0544 26.7766 13.0544 26.7766 13.0544 26.7766C13.0544 26.7766 13.0544 26.7766 13.0544 26.7766C13.0544 26.7766 13.0544 26.7766 13.0544 26.7766C13.0544 26.7766 13.0544 26.7766 13.0545 26.7766C13.0545 26.7766 13.0545 26.7766 13.0545 26.7766C13.0545 26.7766 13.0545 26.7766 13.0545 26.7766C13.0545 26.7766 13.0545 26.7766 13.0545 26.7766C13.0545 26.7766 13.0545 26.7766 13.0545 26.7766C13.0545 26.7766 13.0545 26.7766 13.0545 26.7766C13.0545 26.7766 13.0545 26.7766 13.0545 26.7766C13.0545 26.7766 13.0545 26.7766 13.0545 26.7766C13.0545 26.7766 13.0545 26.7766 13.0545 26.7766C13.0545 26.7766 13.0545 26.7766 13.0545 26.7766C13.0545 26.7766 13.0545 26.7766 13.0545 26.7766C13.0545 26.7766 13.0545 26.7766 13.0545 26.7766C13.0545 26.7766 13.0545 26.7766 13.0545 26.7766C13.0545 26.7766 13.0545 26.7766 13.0545 26.7766C13.0545 26.7766 13.0545 26.7766 13.0545 26.7766C13.0545 26.7766 13.0545 26.7766 13.0545 26.7766C13.0545 26.7766 13.0545 26.7766 13.0545 26.7766C13.0545 26.7766 13.0545 26.7766 13.0545 26.7766C13.0545 26.7766 13.0545 26.7766 13.0545 26.7766C13.0545 26.7766 13.0545 26.7766 13.0545 26.7766C13.0545 26.7766 13.0545 26.7766 13.0545 26.7766C13.0545 26.7766 13.0545 26.7766 13.0545 26.7766C13.0545 26.7766 13.0545 26.7766 13.0545 26.7766C13.0545 26.7766 13.0545 26.7766 13.0545 26.7766C13.0545 26.7766 13.0545 26.7766 13.0545 26.7766C13.0545 26.7766 13.0545 26.7766 13.0545 26.7766C13.0545 26.7766 13.0545 26.7766 13.0545 26.7766C13.0545 26.7766 13.0545 26.7766 13.0545 26.7766C13.0545 26.7766 13.0545 26.7766 13.0545 26.7766C13.0545 26.7766 13.0545 26.7766 13.0545 26.7766C13.0545 26.7766 13.0545 26.7766 13.0545 26.7766C13.0545 26.7766 13.0545 26.7766 13.0545 26.7766C13.0545 26.7766 13.0545 26.7766 13.0545 26.7766C13.0545 26.7766 13.0545 26.7766 13.0545 26.7766C13.0545 26.7766 13.0545 26.7766 13.0545 26.7766C13.0545 26.7766 13.0545 26.7766 13.0545 26.7766C13.0545 26.7766 13.0545 26.7766 13.0545 26.7766C13.0545 26.7766 13.0545 26.7766 13.0545 26.7766C13.0545 26.7766 13.0545 26.7766 13.0545 26.7766C13.0545 26.7766 13.0545 26.7766 13.0545 26.7766C13.0545 26.7766 13.0545 26.7766 13.0545 26.7766C13.0545 26.7766 13.0545 26.7766 13.0545 26.7766C13.0545 26.7766 13.0545 26.7766 13.0545 26.7766C13.0545 26.7766 13.0545 26.7766 13.0545 26.7766C13.0545 26.7766 13.0545 26.7766 13.0545 26.7766C13.0545 26.7766 13.0545 26.7766 13.0545 26.7766C13.0545 26.7766 13.0545 26.7766 13.0545 26.7766C13.0545 26.7766 13.0545 26.7766 13.0545 26.7766C13.0545 26.7766 13.0545 26.7766 13.0545 26.7766C13.0545 26.7766 13.0545 26.7766 13.0545 26.7766C13.0545 26.7766 13.0545 26.7766 13.0545 26.7766C13.0545 26.7766 13.0545 26.7766 13.0545 26.7766C13.0545 26.7766 13.0545 26.7766 13.0545 26.7766C13.0545 26.7766 13.0545 26.7766 13.0545 26.7766C13.0545 26.7766 13.0545 26.7766 13.0545 26.7766C13.0545 26.7766 13.0545 26.7766 13.0545 26.7766C13.0545 26.7766 13.0545 26.7766 13.0545 26.7766C13.0545 26.7766 13.0545 26.7766 13.0545 26.7766C13.0545 26.7766 13.0545 26.7766 13.0545 26.7766C13.0545 26.7766 13.0545 26.7766 13.0545 26.7766C13.0545 26.7766 13.0545 26.7766 13.0545 26.7766C13.0545 26.7766 13.0545 26.7766 13.0545 26.7766C13.0545 26.7766 13.0545 26.7766 13.0545 26.7766C13.0545 26.7766 13.0545 26.7766 13.0545 26.7766C13.0545 26.7766 13.0545 26.7766 13.0545 26.7766C13.0545 26.7766 13.0545 26.7766 13.0545 26.7766C13.0545 26.7766 13.0545 26.7766 13.0545 26.7766C13.0545 26.7766 13.0545 26.7766 13.0545 26.7766C13.0545 26.7766 13.0545 26.7766 13.0545 26.7766C13.0545 26.7766 13.0545 25.7766 13.0545 24.7766C13.0545 24.7766 13.0545 24.7766 13.0545 24.7766C13.0545 24.7766 13.0545 24.7766 13.0545 24.7766C13.0545 24.7766 13.0545 24.7766 13.0545 24.7766C13.0545 24.7766 13.0545 24.7766 13.0545 24.7766C13.0545 24.7766 13.0545 24.7766 13.0545 24.7766C13.0545 24.7766 13.0545 24.7766 13.0545 24.7766C13.0545 24.7766 13.0545 24.7766 13.0545 24.7766C13.0545 24.7766 13.0545 24.7766 13.0545 24.7766C13.0545 24.7766 13.0545 24.7766 13.0545 24.7766C13.0545 24.7766 13.0545 24.7766 13.0545 24.7766C13.0545 24.7766 13.0545 24.7766 13.0545 24.7766C13.0545 24.7766 13.0545 24.7766 13.0545 24.7766C13.0545 24.7766 13.0545 24.7766 13.0545 24.7766C13.0545 24.7766 13.0545 24.7766 13.0545 24.7766C13.0545 24.7766 13.0545 24.7766 13.0545 24.7766C13.0545 24.7766 13.0545 24.7766 13.0545 24.7766C13.0545 24.7766 13.0545 24.7766 13.0545 24.7766C13.0545 24.7766 13.0545 24.7766 13.0545 24.7766C13.0545 24.7766 13.0545 24.7766 13.0545 24.7766C13.0545 24.7766 13.0545 24.7766 13.0545 24.7766C13.0545 24.7766 13.0545 24.7766 13.0545 24.7766C13.0545 24.7766 13.0545 24.7766 13.0545 24.7766C13.0545 24.7766 13.0545 24.7766 13.0545 24.7766C13.0545 24.7766 13.0545 24.7766 13.0545 24.7766C13.0545 24.7766 13.0545 24.7766 13.0545 24.7766C13.0545 24.7766 13.0545 24.7766 13.0545 24.7766C13.0545 24.7766 13.0545 24.7766 13.0545 24.7766C13.0545 24.7766 13.0545 24.7766 13.0545 24.7766C13.0545 24.7766 13.0545 24.7766 13.0545 24.7766C13.0545 24.7766 13.0545 24.7766 13.0545 24.7766C13.0545 24.7766 13.0545 24.7766 13.0545 24.7766C13.0545 24.7766 13.0545 24.7766 13.0545 24.7766C13.0545 24.7766 13.0545 24.7766 13.0545 24.7766C13.0545 24.7766 13.0545 24.7766 13.0545 24.7766C13.0545 24.7766 13.0545 24.7766 13.0545 24.7766C13.0545 24.7766 13.0545 24.7766 13.0545 24.7766C13.0545 24.7766 13.0545 24.7766 13.0545 24.7766C13.0545 24.7766 13.0545 24.7766 13.0545 24.7766C13.0545 24.7766 13.0545 24.7766 13.0545 24.7766C13.0545 24.7766 13.0545 24.7766 13.0545 24.7766C13.0545 24.7766 13.0545 24.7766 13.0545 24.7766C13.0545 24.7766 13.0545 24.7766 13.0545 24.7766C13.0545 24.7766 13.0545 24.7766 13.0545 24.7766C13.0545 24.7766 13.0545 24.7766 13.0545 24.7766C13.0545 24.7766 13.0545 24.7766 13.0545 24.7766C13.0545 24.7766 13.0545 24.7766 13.0545 24.7766C13.0545 24.7766 13.0545 24.7766 13.0545 24.7766C13.0545 24.7766 13.0545 24.7766 13.0545 24.7766C13.0545 24.7766 13.0545 24.7766 13.0545 24.7766C13.0545 24.7766 13.0545 24.7766 13.0545 24.7766C13.0545 24.7766 13.0545 24.7766 13.0545 24.7766C13.0545 24.7766 13.0545 24.7766 13.0545 24.7766C13.0545 24.7766 13.0545 24.7766 13.0545 24.7766C13.0545 24.7766 13.0545 24.7766 13.0545 24.7766C13.0545 24.7766 13.0545 24.7766 13.0545 24.7766C13.0545 24.7766 13.0545 24.7766 13.0545 24.7766C13.0545 24.7766 13.0545 24.7766 13.0545 24.7766C13.0545 24.7766 13.0545 24.7766 13.0545 24.7766C13.0545 24.7766 13.0545 24.7766 13.0545 24.7766C13.0545 24.7766 13.0544 24.7766 13.0544 24.7766C13.0544 24.7766 13.0544 24.7766 13.0544 24.7766C13.0544 24.7766 13.0544 24.7766 13.0544 24.7766C13.0544 24.7766 13.0544 24.7766 13.0544 24.7766C13.0544 24.7766 13.0544 24.7766 13.0544 24.7766C13.0544 24.7766 13.0544 24.7766 13.0544 24.7766C13.0544 24.7766 13.0544 24.7766 13.0544 24.7766C13.0544 24.7766 13.0544 24.7766 13.0544 24.7766C13.0544 24.7766 13.0544 24.7766 13.0544 24.7766C13.0544 24.7766 13.0544 24.7766 13.0544 24.7766C13.0544 24.7766 13.0544 24.7766 13.0544 24.7766C13.0544 24.7766 13.0544 24.7766 13.0544 24.7766C13.0544 24.7766 13.0544 24.7766 13.0544 24.7766C13.0544 24.7766 13.0544 24.7766 13.0544 24.7766C13.0544 24.7766 13.0544 24.7766 13.0544 24.7766C13.0544 24.7766 13.0544 24.7766 13.0544 24.7766C13.0544 24.7766 13.0544 24.7766 13.0544 24.7766C13.0544 24.7766 13.0544 24.7766 13.0544 24.7766C13.0544 24.7766 13.0544 24.7766 13.0544 24.7766C13.0544 24.7766 13.0544 24.7766 13.0544 24.7766C13.0544 24.7766 13.0544 24.7766 13.0544 24.7766C13.0544 24.7766 13.0544 24.7766 13.0544 24.7766C13.0544 24.7766 13.0544 24.7766 13.0544 24.7766C13.0544 24.7766 13.0544 24.7766 13.0544 24.7766C13.0544 24.7766 13.0544 24.7766 13.0544 24.7766C13.0544 24.7766 13.0544 24.7766 13.0544 24.7766C13.0544 24.7766 13.0544 24.7766 13.0544 24.7766C13.0544 24.7766 13.0544 24.7766 13.0544 24.7766C13.0544 24.7766 13.0544 24.7766 13.0544 24.7766C13.0544 24.7766 13.0544 24.7766 13.0544 24.7766C13.0544 24.7766 13.0544 24.7766 13.0544 24.7766C13.0544 24.7766 13.0544 24.7766 13.0544 24.7766C13.0544 24.7766 13.0544 24.7766 13.0544 24.7766C13.0544 24.7766 13.0544 24.7766 13.0544 24.7766C13.0544 24.7766 13.0544 24.7766 13.0544 24.7766C13.0544 24.7766 13.0544 24.7766 13.0544 24.7766C13.0544 24.7766 13.0544 24.7766 13.0544 24.7766C13.0544 24.7766 13.0544 24.7766 13.0544 24.7766C13.0544 24.7766 13.0544 24.7766 13.0544 24.7766C13.0544 24.7766 13.0544 24.7766 13.0544 24.7766C13.0544 24.7766 13.0544 24.7766 13.0544 24.7766C13.0544 24.7766 13.0544 24.7766 13.0544 24.7766C13.0544 24.7766 13.0544 24.7766 13.0544 24.7766C13.0544 24.7766 13.0544 24.7766 13.0544 24.7766C13.0544 24.7766 13.0544 24.7766 13.0544 24.7766C13.0544 24.7766 13.0544 24.7766 13.0544 24.7766C13.0544 24.7766 13.0544 24.7766 13.0544 24.7766C13.0544 24.7766 13.0544 24.7766 13.0544 24.7766C13.0544 24.7766 13.0544 24.7766 13.0544 24.7766V26.7766ZM13.0544 26.7766C20.737 26.7766 26.9968 20.5534 27 12.8935L25 12.8927C24.9972 19.4401 19.6411 24.7766 13.0544 24.7766V26.7766ZM27 12.8934C27.0014 9.18422 25.5497 5.69241 22.9176 3.06998L21.506 4.48679C23.7622 6.73469 25.0012 9.71677 25 12.8927L27 12.8934ZM13.0543 22.6007H13.0499V24.6007H13.0543V22.6007ZM13.0503 22.6007C11.2973 22.6 9.5792 22.1312 8.08202 21.247L7.06501 22.9691C8.87192 24.0362 10.9413 24.5999 13.0496 24.6007L13.0503 22.6007ZM8.08209 21.2471L7.68923 21.015L6.67209 22.737L7.06495 22.9691L8.08209 21.2471ZM6.92807 20.9085L2.85565 21.9716L3.36083 23.9067L7.43325 22.8436L6.92807 20.9085ZM4.07242 23.2044L5.15946 19.2528L3.23109 18.7224L2.14406 22.6739L4.07242 23.2044ZM5.04082 18.4537L4.78496 18.0485L3.09387 19.1163L3.34973 19.5215L5.04082 18.4537ZM4.78485 18.0483C3.8092 16.5039 3.29359 14.7188 3.29436 12.8839L1.29436 12.8831C1.29344 15.095 1.91553 17.251 3.09398 19.1165L4.78485 18.0483ZM3.29436 12.8839C3.29645 7.53637 7.67127 3.17597 13.0587 3.17597V1.17597C6.57602 1.17597 1.29689 6.42233 1.29436 12.8831L3.29436 12.8839ZM13.0584 3.17597C15.6684 3.17678 18.1162 4.18772 19.9599 6.02472L21.3715 4.60792C19.1522 2.39672 16.1968 1.17694 13.059 1.17597L13.0584 3.17597ZM19.9599 6.02471C21.8034 7.86155 22.8152 10.2972 22.8142 12.8918L24.8142 12.8926C24.8154 9.76464 23.5909 6.81929 21.3715 4.60793L19.9599 6.02471ZM22.8142 12.8918C22.812 18.2402 18.4369 22.6007 13.0543 22.6007V24.6007C19.5329 24.6007 24.8115 19.3535 24.8142 12.8926L22.8142 12.8918ZM19.4023 14.6856C19.2357 14.6026 18.7529 14.3655 18.2742 14.1355C17.827 13.9207 17.2954 13.6688 17.087 13.5932L16.4051 15.4734C16.4031 15.4727 16.4108 15.4755 16.4322 15.4844C16.4521 15.4926 16.478 15.5037 16.5102 15.5179C16.5746 15.5463 16.6561 15.5832 16.751 15.6272C16.9406 15.7149 17.1724 15.825 17.4081 15.9382C17.8795 16.1647 18.3536 16.3976 18.5105 16.4757L19.4023 14.6856ZM17.0867 13.5931C16.9684 13.5503 16.6246 13.4152 16.2387 13.4592C15.7428 13.5156 15.4032 13.8155 15.1872 14.1384L16.8495 15.2505C16.8555 15.2416 16.8279 15.2863 16.7546 15.3375C16.6718 15.3955 16.5697 15.4344 16.465 15.4463C16.3729 15.4568 16.3133 15.4424 16.3122 15.4421C16.3103 15.4417 16.3162 15.443 16.3333 15.4485C16.3506 15.454 16.373 15.4617 16.4054 15.4735L17.0867 13.5931ZM15.1872 14.1383C15.0153 14.3953 14.443 15.0687 14.2427 15.2969L15.7455 16.6165C15.9226 16.4149 16.5901 15.638 16.8494 15.2506L15.1872 14.1383ZM14.2428 15.2967C14.2429 15.2966 14.2445 15.2947 14.2477 15.2915C14.2509 15.2883 14.2559 15.2835 14.2626 15.2776C14.2762 15.2657 14.2978 15.2484 14.3278 15.23C14.3932 15.1899 14.4782 15.1568 14.5742 15.1452C14.7505 15.1239 14.8351 15.1899 14.7396 15.1423L13.847 16.9321C14.0749 17.0457 14.4156 17.1789 14.8142 17.1307C15.2536 17.0776 15.5549 16.8335 15.7453 16.6167L14.2428 15.2967ZM14.7392 15.1421C14.3178 14.9322 13.4619 14.6733 12.356 13.6916L11.0282 15.1873C12.3933 16.3991 13.6219 16.82 13.8474 16.9323L14.7392 15.1421ZM12.356 13.6916C11.5132 12.9434 10.9275 11.9978 10.7555 11.704L9.02959 12.7146C9.23509 13.0655 9.94773 14.2281 11.0282 15.1873L12.356 13.6916ZM10.7555 11.704C10.7604 11.7123 10.7918 11.7689 10.8043 11.8666C10.8177 11.9719 10.8031 12.0782 10.7688 12.1701C10.738 12.2524 10.7003 12.2997 10.6941 12.3072C10.6909 12.3112 10.6948 12.3057 10.7385 12.2625L9.3304 10.8421C9.27649 10.8956 9.02338 11.1271 8.89522 11.4703C8.73098 11.91 8.81518 12.3484 9.02958 12.7145L10.7555 11.704ZM10.7386 12.2624C10.9186 12.0838 11.1802 11.7539 11.2777 11.6405L9.76159 10.3362C9.53566 10.5988 9.44122 10.7322 9.3303 10.8422L10.7386 12.2624ZM11.2777 11.6406C11.5387 11.3372 11.6521 11.0687 11.7367 10.9002L9.9495 10.0025C9.92375 10.0537 9.88901 10.1248 9.87446 10.154C9.85434 10.1945 9.84115 10.2198 9.82984 10.2399C9.81274 10.2703 9.79627 10.2959 9.76167 10.3361L11.2777 11.6406ZM11.7369 10.8998C12.0502 10.2755 11.8535 9.72453 11.7097 9.43842L9.92258 10.3363C9.93593 10.3628 9.91394 10.3286 9.90614 10.256C9.90193 10.2169 9.90227 10.171 9.91086 10.1221C9.91947 10.0731 9.93436 10.0326 9.94932 10.0028L11.7369 10.8998ZM11.7099 9.43876C11.7149 9.4488 11.7075 9.43373 11.679 9.36783C11.655 9.31238 11.6235 9.23831 11.5859 9.14891C11.5109 8.97049 11.415 8.73945 11.3123 8.49127C11.1084 7.99841 10.8772 7.43582 10.7415 7.11128L8.89625 7.88273C9.0301 8.20287 9.25701 8.75488 9.46419 9.25573C9.65682 9.72145 9.86042 10.2124 9.92241 10.3359L11.7099 9.43876ZM10.7414 7.11097C10.5657 6.69116 10.3015 6.29341 9.85638 6.08412C9.64122 5.98296 9.44438 5.95605 9.30829 5.94832C9.2452 5.94474 9.18917 5.94516 9.16318 5.9453C9.12672 5.9455 9.13218 5.94523 9.14124 5.94568L9.04077 7.94316C9.07308 7.94478 9.1016 7.94523 9.1229 7.94536C9.14306 7.94548 9.1635 7.94533 9.17387 7.94527C9.2015 7.94513 9.20093 7.94545 9.19487 7.9451C9.17283 7.94385 9.0963 7.93678 9.00545 7.89407C8.96214 7.87371 8.92561 7.84993 8.89654 7.82641C8.86817 7.80346 8.85146 7.78445 8.8446 7.77597C8.83332 7.76201 8.85528 7.7848 8.89638 7.88303L10.7414 7.11097ZM9.14064 5.94565C8.9259 5.93498 8.68907 5.93312 8.47108 5.93312V7.93312C8.68432 7.93312 8.87933 7.93513 9.04138 7.94319L9.14064 5.94565ZM8.47108 5.93312C8.0277 5.93312 7.39089 6.09551 6.8726 6.65887L8.34447 8.01298C8.38484 7.96909 8.41894 7.95116 8.4403 7.94265C8.46667 7.93215 8.48174 7.93312 8.47108 7.93312V5.93312ZM6.87255 6.65892C6.572 6.98566 5.47636 8.01829 5.47636 10.0215H7.47636C7.47636 8.85594 8.05211 8.33081 8.34452 8.01292L6.87255 6.65892ZM5.47636 10.0215C5.47636 11.0399 5.84272 11.9831 6.18535 12.6547C6.53521 13.3405 6.90693 13.8318 6.99836 13.9532L8.59602 12.7501C8.5257 12.6567 8.237 12.2752 7.96689 11.7458C7.68954 11.2021 7.47636 10.5877 7.47636 10.0215H5.47636ZM6.99805 13.9528C6.99521 13.949 7.00025 13.9559 7.03125 14.0001C7.05629 14.0359 7.09078 14.0851 7.1329 14.1444C7.21751 14.2634 7.33297 14.4228 7.47732 14.6121C7.76552 14.99 8.16943 15.4879 8.67612 16.0256C9.68039 17.0913 11.1309 18.3589 12.9281 19.1312L13.7177 17.2937C10.7685 16.0263 8.81114 13.036 8.59632 12.7505L6.99805 13.9528ZM12.928 19.1312C13.7434 19.4817 14.3814 19.6912 14.8658 19.8442L15.468 17.937C15.013 17.7933 14.4459 17.6067 13.7178 17.2938L12.928 19.1312ZM14.8654 19.844C15.8386 20.1518 16.7113 20.1025 17.3514 20.0073L17.0572 18.029C16.5826 18.0996 16.045 18.1195 15.4685 17.9371L14.8654 19.844ZM17.3514 20.0073C17.8488 19.9333 18.4614 19.6649 18.9657 19.3432C19.4454 19.0373 20.0777 18.526 20.329 17.825L18.4463 17.1501C18.4468 17.1486 18.4408 17.1654 18.4172 17.1998C18.3939 17.2339 18.3583 17.2777 18.3074 17.3295C18.2037 17.4349 18.0605 17.5484 17.8902 17.657C17.5256 17.8896 17.1814 18.0106 17.0572 18.029L17.3514 20.0073ZM20.329 17.825C20.4932 17.3668 20.5788 16.9332 20.6097 16.5768C20.625 16.3997 20.6282 16.2264 20.6158 16.0682C20.6077 15.9653 20.5838 15.691 20.4326 15.4402L18.7199 16.4731C18.6505 16.3578 18.6301 16.2641 18.6271 16.2506C18.6209 16.2234 18.621 16.2128 18.6219 16.2252C18.6238 16.2492 18.6254 16.3092 18.6171 16.404C18.6009 16.5915 18.5516 16.8562 18.4463 17.1501L20.329 17.825ZM20.433 15.4409C20.2451 15.1288 19.9605 14.9688 19.8368 14.9012C19.7152 14.8348 19.5063 14.7374 19.4024 14.6856L18.5103 16.4757C18.5987 16.5197 18.6828 16.5597 18.7437 16.5891C18.8107 16.6215 18.85 16.6411 18.8778 16.6563C18.9064 16.6719 18.8965 16.6688 18.8708 16.6485C18.8429 16.6265 18.7784 16.5702 18.7196 16.4724L20.433 15.4409Z" fill="#CDA274" mask="url(#path-1-inside-1_1502_25200)"/>
</svg>
