<svg width="45" height="53" viewBox="0 0 45 53" fill="none" xmlns="http://www.w3.org/2000/svg">
<g clip-path="url(#clip0_1475_26612)">
<path d="M22.5 0C7.605 0 0.486667 8.35909 0.19 8.71519C0.0683333 8.86425 0 9.04975 0 9.24353V25.8955C0 39.9802 13.0433 48.3426 18.65 51.2841C19.0567 51.4978 19.56 51.3421 19.7767 50.938C19.9917 50.5338 19.835 50.032 19.4283 49.8183C12.795 46.3386 1.66667 38.6039 1.66667 25.8938V9.55822C2.83667 8.30775 9.38667 1.94444 21.6667 1.66619V52.1719C21.6667 52.629 22.04 53 22.5 53C22.7483 53 22.9717 52.8923 23.125 52.7201C25.8533 51.5541 45 42.7578 45 25.6719V9.10938C45 8.91559 44.9317 8.72844 44.8083 8.58103C44.5617 8.28456 38.6183 1.33494 26.24 0.0944062C25.7817 0.0629375 25.3717 0.380938 25.3267 0.83475C25.28 1.29022 25.615 1.696 26.0717 1.74238C36.55 2.79244 42.2433 8.27628 43.3333 9.42737V25.6719C43.3333 40.4986 27.7283 48.7749 23.3333 50.8121V0.828125C23.3333 0.371 22.96 0 22.5 0Z" fill="#CDA274"/>
</g>
<defs>
<clipPath id="clip0_1475_26612">
<rect width="45" height="53" fill="white"/>
</clipPath>
</defs>
</svg>
